<?xml version="1.0" encoding="utf-8"?>
<svg xmlns="http://www.w3.org/2000/svg" version="1.1" viewBox="0 0 756.68 386.7">
	<title>The first diagram depicts a simplified family tree of the House of Atreus. The family line starts with Tantalus, followed by one of his sons, Polops. The third generation only shows two of Polops’ many children, Atreus and Thyestes. Thyestes is the father of Aigisthos, who is Clytemnestra’s lover. Atreus had two sons: Agamemnon and Menelaus. Agamemnon and Clytemnestra had three children: Iphigenia, Electra, and Orestes.</title>
	<path d="m388.93 27.09v28.203h1v-28.203zm0 57.57v30.746h1v-30.746zm-145.57 31.508v32.057h1v-31.057h390.94v33.316h1v-34.316zm0 60.869v29.148h1v-29.148zm391.94 3.041v60.387h1v-60.387zm-497.44 27.992v31.072h1v-30.072h259.12v31.732h1v-32.732zm0 89.006v30.57h1v-30.57zm-74.441 31.525v32.148h1v-31.148h165.86v31.127h1v-31.127h158.75v31.148h1v-32.148z" stroke="#000" stroke-linecap="square"/>
	<path d="m323.92 0-0.234 4.9004h0.972c0.311-1.1407 0.778-2.0749 1.401-2.8008 0.596-0.64815 1.204-0.97266 1.826-0.97266h2.373v14.584c0 0.5704-0.182 1.0506-0.545 1.4395-0.389 0.363-0.83 0.545-1.322 0.545h-0.66v0.582h8.439v-0.582h-0.662c-0.493 0-0.92-0.182-1.283-0.5449-0.389-0.3889-0.584-0.8691-0.584-1.4395v-14.584h2.373c0.622 0 1.245 0.32451 1.867 0.97266 0.622 0.72592 1.087 1.66 1.398 2.8008h0.934l-0.233-4.9004zm125.64 3.4199c-1.1 0-2.047 0.36628-2.842 1.0996-0.774 0.71296-1.162 1.5574-1.162 2.5352 0 0.73334 0.316 1.4876 0.947 2.2617 0.591 0.7945 1.416 1.4983 2.475 2.1094 1.08 0.6315 1.946 1.263 2.598 1.8945 0.611 0.6315 0.916 1.171 0.916 1.6191 0 0.7537-0.233 1.3942-0.701 1.9238-0.469 0.4889-1.01 0.7344-1.622 0.7344-0.896 0-1.74-0.3376-2.535-1.0098-0.855-0.6722-1.498-1.6285-1.926-2.8711h-0.855l0.582 4.6445v0.0293h0.885c0.04-0.2037 0.133-0.3552 0.275-0.4571 0.122-0.0815 0.245-0.123 0.367-0.123 0.326 0 0.693 0.1119 1.1 0.3359 0.489 0.2852 1.191 0.4278 2.107 0.4278 1.365 0 2.527-0.4168 3.485-1.252 0.957-0.8148 1.435-1.7928 1.435-2.9336 0-0.713-0.324-1.4673-0.976-2.2617-0.672-0.7741-1.558-1.4958-2.658-2.168-1.121-0.63148-1.998-1.2739-2.629-1.9258-0.673-0.67222-1.008-1.2731-1.008-1.8027 0-0.50926 0.224-0.93691 0.672-1.2832 0.407-0.36666 0.896-0.55078 1.467-0.55078 0.753 0 1.466 0.31579 2.138 0.94727 0.734 0.69259 1.315 1.6003 1.742 2.7207h0.641l-0.428-4.6445h-0.732c-0.041 0.24444-0.144 0.4266-0.307 0.54883-0.122 0.10185-0.284 0.15429-0.488 0.15429-0.183 0-0.55-0.092-1.1-0.27539-0.753-0.28518-1.374-0.42773-1.863-0.42773zm-99.486 0.12109-5.195 12.223c-0.204 0.6111-0.489 1.0892-0.856 1.4356-0.346 0.3463-0.723 0.5195-1.131 0.5195v0.4589h4.461v-0.4589h-0.548c-0.225 0-0.439-0.0812-0.643-0.2442-0.204-0.1426-0.305-0.3465-0.305-0.6113 0-0.3259 0.081-0.6922 0.244-1.0996l1.008-2.3535h5.379l1.039 2.3535c0.184 0.5296 0.274 0.8959 0.274 1.0996 0 0.2648-0.09 0.4687-0.274 0.6113-0.163 0.163-0.347 0.2442-0.551 0.2442h-0.58v0.4589h5.469v-0.4589c-0.367 0-0.693-0.1733-0.978-0.5196-0.326-0.3463-0.59-0.8244-0.793-1.4356l-5.471-12.223zm50.828 0-5.195 12.223c-0.204 0.6111-0.489 1.0892-0.856 1.4356-0.346 0.3463-0.723 0.5195-1.131 0.5195v0.4589h4.461v-0.4589h-0.549c-0.224 0-0.438-0.0812-0.642-0.2442-0.204-0.1426-0.305-0.3465-0.305-0.6113 0-0.3259 0.081-0.6922 0.244-1.0996l1.008-2.3535h5.377l1.039 2.3535c0.184 0.5296 0.276 0.8959 0.276 1.0996 0 0.2648-0.092 0.4687-0.276 0.6113-0.163 0.163-0.345 0.2442-0.549 0.2442h-0.58v0.4589h5.469v-0.4589c-0.367 0-0.693-0.1733-0.978-0.5196-0.326-0.3463-0.59-0.8244-0.793-1.4356l-5.471-12.223zm-40.598 0.27539v0.48828h0.549c0.142 0 0.55 0.39892 1.223 1.1934l0.214 0.24414v10.236c0 0.4889-0.142 0.8948-0.427 1.2207-0.306 0.3463-0.643 0.5195-1.01 0.5195h-0.549v0.459h5.225v-0.459h-0.551c-0.367 0-0.702-0.1624-1.008-0.4883-0.326-0.3463-0.488-0.7631-0.488-1.252v-8.8008l9.381 11.305h0.64v-12.619c0-0.42778 0.134-0.80494 0.399-1.1309 0.285-0.28519 0.629-0.42774 1.037-0.42774h0.519v-0.48828h-5.041v0.48828h0.551c0.367 0 0.661 0.13363 0.885 0.39844 0.326 0.3463 0.49 0.73238 0.49 1.1602v7.8848l-8.129-9.9316zm17.961 0-0.184 3.8496h0.764c0.245-0.89629 0.611-1.6288 1.1-2.1992 0.468-0.50926 0.948-0.76367 1.437-0.76367h1.863v11.457c0 0.4482-0.142 0.8253-0.427 1.1309-0.306 0.2852-0.652 0.4277-1.039 0.4277h-0.52v0.459h6.631v-0.459h-0.52c-0.387 0-0.722-0.1426-1.007-0.4277-0.306-0.3056-0.459-0.6828-0.459-1.1309v-11.457h1.863c0.489 0 0.978 0.25441 1.467 0.76367 0.489 0.57037 0.855 1.3029 1.099 2.1992h0.735l-0.184-3.8496zm32.836 0v0.48828h0.551c0.366 0 0.702 0.12275 1.008 0.36719 0.285 0.26482 0.427 0.59148 0.427 0.97852v10.725c0 0.3666-0.142 0.6933-0.427 0.9785-0.306 0.2444-0.642 0.3652-1.008 0.3652h-0.551v0.459h12.191l0.795-3.8496h-0.672c-0.326 0.9166-0.815 1.6403-1.467 2.1699-0.692 0.55-1.416 0.8242-2.17 0.8242h-3.177c-0.265 0-0.511-0.0812-0.735-0.2442-0.203-0.224-0.304-0.4586-0.304-0.7031v-10.512c0-0.44815 0.131-0.83423 0.396-1.1602 0.245-0.26481 0.53-0.39844 0.856-0.39844h0.519v-0.48828zm15.578 0v0.48828h0.549c0.366 0 0.693 0.14255 0.978 0.42774 0.306 0.32592 0.459 0.70308 0.459 1.1309v7.6387c0 1.3648 0.54 2.5359 1.619 3.5137 1.141 0.9778 2.455 1.4668 3.942 1.4668 1.67 0 3.076-0.489 4.217-1.4668 1.059-0.9778 1.588-2.1489 1.588-3.5137v-7.2715c0-0.57037 0.164-1.0396 0.49-1.4062 0.285-0.3463 0.61-0.51954 0.976-0.51954h0.551v-0.48828h-5.348v0.48828h0.52c0.367 0 0.693 0.17324 0.978 0.51954 0.306 0.36666 0.457 0.83588 0.457 1.4062v7.2715c0 1.1204-0.375 2.0786-1.128 2.873-0.734 0.7333-1.611 1.0996-2.629 1.0996-1.019 0-1.905-0.3663-2.659-1.0996-0.733-0.7944-1.099-1.7527-1.099-2.873v-7.6387c0-0.42778 0.142-0.80494 0.428-1.1309 0.305-0.28519 0.641-0.42774 1.007-0.42774h0.52v-0.48828zm-76.912 3.1465 2.445 5.5918h-4.806zm50.828 0 2.445 5.5918h-4.806zm-17.785 50.004-4.668 1.1289v0.582h1.205c0.208 0 0.376 0.1051 0.506 0.3125 0.207 0.2593 0.312 0.5575 0.312 0.8945v13.883c0 0.4408-0.142 0.8027-0.427 1.0879-0.26 0.2593-0.558 0.3907-0.895 0.3907h-0.701v0.582h6.65v-0.582h-0.699c-0.285 0-0.57-0.1314-0.855-0.3906-0.285-0.2852-0.428-0.6472-0.428-1.0879zm-38.057 0.584v0.623h0.701c0.467 0 0.894 0.1537 1.283 0.4649 0.363 0.337 0.543 0.7535 0.543 1.2461v13.377c0 0.5703-0.193 1.0506-0.582 1.4394-0.363 0.3629-0.777 0.5449-1.244 0.5449h-0.701v0.582h8.166v-0.582h-0.66c-0.467 0-0.894-0.1819-1.283-0.5449-0.363-0.3889-0.545-0.8691-0.545-1.4394v-5.25h2.099c2.178 0 3.941-0.4802 5.289-1.4395 1.271-0.9593 1.907-2.2291 1.907-3.8105 0-1.5296-0.61-2.7863-1.828-3.7715-1.193-0.9593-2.827-1.4394-4.901-1.4394zm7.777 1.127c1.141 0 2.049 0.3639 2.723 1.0898 0.752 0.7518 1.129 1.7497 1.129 2.9941 0 1.2704-0.377 2.2945-1.129 3.0723-0.674 0.7259-1.633 1.0898-2.877 1.0898h-1.945v-7.0391c0-0.3371 0.195-0.6222 0.584-0.8555 0.44-0.2333 0.945-0.3516 1.515-0.3516zm56.279 4.3555-4.668 1.3613 0.196 0.5839h1.01c0.233 0 0.415 0.1032 0.544 0.3106 0.208 0.2852 0.311 0.5834 0.311 0.8945v13.379c0 0.5185-0.143 0.9593-0.428 1.3223-0.285 0.2593-0.594 0.3887-0.931 0.3887h-0.702v0.6211h6.922v-0.6211h-0.66c-0.415 0-0.792-0.1425-1.129-0.4277-0.311-0.3371-0.465-0.7647-0.465-1.2832v-4.0449c0.052 0.0519 0.349 0.1681 0.893 0.3496 0.544 0.1555 1.194 0.2344 1.945 0.2344 1.608 0 2.956-0.7259 4.045-2.1777 1.037-1.4778 1.555-3.2034 1.555-5.1738 0-1.5296-0.428-2.8388-1.283-3.9277-0.882-1.1667-1.983-1.75-3.305-1.75-0.959 0-1.801 0.1819-2.527 0.5449-0.778 0.3629-1.219 0.648-1.323 0.8554zm-39.855 0.0391c-1.529 0-2.827 0.6358-3.89 1.9062-1.063 1.2963-1.594 2.7875-1.594 4.4727 0 1.8148 0.531 3.3697 1.594 4.666 1.063 1.3222 2.348 1.9844 3.851 1.9844 1.478 0 2.8-0.4296 3.967-1.2852 1.115-0.8556 1.852-1.9434 2.215-3.2656l-0.66-0.4668c-0.571 0.9852-1.231 1.7111-1.983 2.1777-0.7 0.4666-1.439 0.6992-2.216 0.6992-1.193 0-2.217-0.4651-3.073-1.3984-0.881-0.9852-1.322-2.1519-1.322-3.5h8.594c0-1.6852-0.518-3.0864-1.555-4.2012-1.063-1.1926-2.372-1.7891-3.928-1.7891zm25.494 0c-1.737 0-3.215 0.6358-4.433 1.9062-1.193 1.2704-1.789 2.7616-1.789 4.4727 0 1.8148 0.596 3.3697 1.789 4.666 1.218 1.3222 2.644 1.9844 4.277 1.9844 1.867 0 3.422-0.6622 4.666-1.9844 1.167-1.2963 1.75-2.8512 1.75-4.666 0-1.7111-0.583-3.2023-1.75-4.4727-1.244-1.2704-2.747-1.9062-4.51-1.9062zm30.898 0c-1.063 0-1.955 0.377-2.681 1.1289-0.7 0.6481-1.051 1.4378-1.051 2.3711 0 0.8037 0.325 1.5427 0.973 2.2168 0.674 0.7777 1.555 1.3742 2.644 1.7891 0.83 0.2592 1.477 0.6363 1.944 1.1289 0.492 0.5185 0.74 1.0362 0.74 1.5547 0 0.5703-0.195 1.0374-0.584 1.4004-0.441 0.3888-0.947 0.5839-1.518 0.5839-0.726 0-1.412-0.3639-2.06-1.0898-0.649-0.674-1.063-1.5951-1.244-2.7617h-0.895l0.232 4.4336h0.856l0.39-0.4668c0.234 0.2075 0.609 0.3763 1.127 0.5059 0.493 0.1556 1.024 0.2344 1.594 0.2344 1.245 0 2.321-0.4033 3.229-1.207 0.829-0.7259 1.244-1.6075 1.244-2.6445 0-0.7519-0.285-1.4515-0.856-2.0996-0.622-0.6741-1.451-1.218-2.488-1.6328-0.907-0.2852-1.646-0.7129-2.217-1.2832-0.544-0.5963-0.816-1.1928-0.816-1.7891 0-0.4148 0.169-0.7787 0.506-1.0898 0.311-0.2334 0.699-0.3496 1.166-0.3496 0.57 0 1.127 0.2719 1.672 0.8164 0.57 0.5963 1.05 1.401 1.439 2.4121h0.856l-0.235-3.8887h-0.855c-0.052 0.1296-0.103 0.2065-0.154 0.2324-0.052 0.0259-0.118 0.0391-0.196 0.0391-0.233 0-0.558-0.09-0.972-0.2715-0.545-0.1815-1.141-0.2734-1.79-0.2734zm-56.549 0.9336c0.649 0 1.245 0.377 1.79 1.1289 0.596 0.8037 0.997 1.8147 1.205 3.0332h-5.911c0.312-1.3482 0.713-2.3591 1.206-3.0332 0.518-0.7519 1.088-1.1289 1.71-1.1289zm25.184 0c1.089 0 2.035 0.557 2.838 1.6719 0.856 1.1667 1.284 2.6072 1.284 4.3184 0 1.4518-0.336 2.6954-1.01 3.7324-0.571 1.0111-1.336 1.5176-2.295 1.5176s-1.854-0.5965-2.684-1.7891c-0.829-1.2444-1.244-2.7356-1.244-4.4727 0-1.4 0.325-2.5929 0.973-3.5781 0.596-0.9334 1.309-1.4004 2.138-1.4004zm17.434 0.623c0.908 0 1.671 0.4782 2.293 1.4375 0.7 0.9852 1.051 2.2044 1.051 3.6562 0 1.5556-0.351 2.8648-1.051 3.9277-0.622 1.063-1.451 1.5957-2.488 1.5957-0.492 0-0.973-0.1445-1.439-0.4297-0.467-0.2333-0.79-0.569-0.971-1.0098v-7.4668c0.233-0.5444 0.595-0.9589 1.088-1.2441 0.492-0.3111 0.999-0.4668 1.517-0.4668zm-205.28 85.164-6.611 15.555c-0.259 0.778-0.623 1.388-1.09 1.828-0.44 0.441-0.919 0.662-1.437 0.662v0.582h5.678v-0.582h-0.702c-0.285 0-0.557-0.105-0.816-0.312-0.259-0.182-0.389-0.44-0.389-0.777 0-0.415 0.103-0.882 0.311-1.401l1.283-2.994h6.846l1.322 2.994c0.233 0.674 0.35 1.141 0.35 1.401 0 0.337-0.117 0.595-0.35 0.777-0.207 0.207-0.442 0.312-0.701 0.312h-0.738v0.582h6.96v-0.582c-0.466 0-0.881-0.221-1.244-0.662-0.415-0.44-0.752-1.05-1.011-1.828l-6.961-15.555zm393.19 2.469-4.394 1.127v0.584h0.699c0.259 0 0.507 0.103 0.74 0.31 0.234 0.26 0.35 0.558 0.35 0.895v13.65c0 0.467-0.129 0.894-0.389 1.283-0.207 0.285-0.442 0.428-0.701 0.428h-0.699v0.584h6.183v-0.584h-0.701c-0.259 0-0.505-0.129-0.738-0.389-0.233-0.285-0.35-0.649-0.35-1.09v-7.193c0.415-0.57 0.869-1.024 1.362-1.361 0.492-0.285 0.997-0.428 1.515-0.428 0.467 0 0.883 0.156 1.246 0.467 0.389 0.415 0.582 0.906 0.582 1.476v7.04c0 0.44-0.09 0.804-0.271 1.089-0.156 0.26-0.351 0.389-0.584 0.389h-0.621v0.584h5.871v-0.584h-0.66c-0.285 0-0.533-0.129-0.74-0.389-0.26-0.285-0.389-0.649-0.389-1.089v-7.04c0-0.985-0.349-1.84-1.049-2.566-0.726-0.726-1.607-1.088-2.644-1.088-0.804 0-1.556 0.206-2.256 0.621-0.726 0.441-1.18 0.831-1.362 1.168zm-377.04 0.176c-0.285 0.752-0.726 1.451-1.322 2.099s-1.335 1.232-2.217 1.75v0.817h1.789v8.75c0 0.752 0.233 1.414 0.7 1.984 0.44 0.57 0.958 0.856 1.554 0.856 0.856 0 1.595-0.156 2.217-0.467 0.622-0.337 1.089-0.791 1.401-1.362l-0.584-0.388c-0.208 0.285-0.427 0.465-0.661 0.543-0.181 0.129-0.401 0.195-0.66 0.195-0.363 0-0.674-0.129-0.933-0.389-0.286-0.363-0.428-0.764-0.428-1.205v-8.674h2.799v-1.009h-2.799v-3.5zm353.31 0.406-0.232 4.9h0.973c0.311-1.14 0.778-2.073 1.4-2.798 0.596-0.649 1.204-0.973 1.826-0.973h2.373v14.582c0 0.57-0.182 1.05-0.545 1.439-0.389 0.363-0.829 0.545-1.322 0.545h-0.66v0.584h8.437v-0.584h-0.66c-0.492 0-0.92-0.182-1.283-0.545-0.389-0.388-0.584-0.869-0.584-1.439v-14.582h2.373c0.622 0 1.245 0.324 1.867 0.973 0.622 0.725 1.088 1.658 1.399 2.798h0.933l-0.232-4.9zm-369.85 1.305 3.112 7.117h-6.119zm453.47 0.99c-0.285 0.752-0.726 1.451-1.322 2.099-0.596 0.649-1.335 1.232-2.217 1.75v0.817h1.789v8.75c0 0.752 0.233 1.414 0.7 1.984 0.44 0.571 0.96 0.856 1.556 0.856 0.856 0 1.595-0.156 2.217-0.467 0.622-0.337 1.087-0.791 1.398-1.361l-0.582-0.389c-0.207 0.285-0.428 0.467-0.662 0.545-0.181 0.13-0.401 0.193-0.66 0.193-0.363 0-0.674-0.129-0.933-0.388-0.286-0.363-0.428-0.765-0.428-1.206v-8.671h2.799v-1.012h-2.799v-3.5zm-425.26 0.486-4.589 1.362-0.194 0.583h1.088c0.285 0 0.544 0.104 0.777 0.311 0.208 0.259 0.313 0.558 0.313 0.895v7.584c0 0.44-0.143 0.802-0.428 1.087-0.285 0.26-0.596 0.391-0.933 0.391h-0.623v0.582h6.882v-0.582h-0.66c-0.415 0-0.792-0.131-1.129-0.39-0.337-0.286-0.504-0.648-0.504-1.088v-7.196c0.312-0.492 0.621-0.894 0.932-1.205 0.285-0.259 0.52-0.388 0.701-0.388 0.104 0 0.233 0.039 0.389 0.117 0.181 0.052 0.337 0.128 0.467 0.232 0.155 0.156 0.311 0.259 0.467 0.311 0.181 0.078 0.363 0.117 0.544 0.117 0.363 0 0.686-0.143 0.971-0.428 0.233-0.285 0.352-0.57 0.352-0.855 0-0.363-0.143-0.675-0.428-0.934-0.363-0.311-0.793-0.467-1.285-0.467-0.648 0-1.295 0.222-1.944 0.662-0.57 0.415-0.958 0.79-1.166 1.127zm13.699 0.039c-1.529 0-2.825 0.636-3.888 1.907-1.063 1.296-1.596 2.787-1.596 4.472 0 1.815 0.533 3.37 1.596 4.666 1.063 1.322 2.346 1.985 3.849 1.985 1.478 0 2.8-0.43 3.967-1.286 1.115-0.855 1.854-1.943 2.217-3.265l-0.662-0.467c-0.571 0.985-1.231 1.711-1.983 2.178-0.7 0.466-1.439 0.699-2.216 0.699-1.193 0-2.217-0.465-3.073-1.398-0.881-0.986-1.322-2.152-1.322-3.5h8.594c0-1.686-0.518-3.087-1.555-4.202-1.063-1.192-2.372-1.789-3.928-1.789zm30.355 0c-1.063 0-1.957 0.377-2.683 1.129-0.7 0.648-1.049 1.438-1.049 2.371 0 0.804 0.323 1.543 0.971 2.217 0.674 0.778 1.555 1.374 2.644 1.789 0.83 0.259 1.479 0.637 1.945 1.129 0.493 0.519 0.739 1.036 0.739 1.555 0 0.57-0.195 1.037-0.584 1.4-0.441 0.389-0.945 0.584-1.516 0.584-0.726 0-1.412-0.364-2.06-1.09-0.649-0.674-1.065-1.595-1.247-2.761h-0.892l0.232 4.433h0.856l0.388-0.467c0.234 0.208 0.611 0.377 1.129 0.506 0.493 0.156 1.024 0.235 1.594 0.235 1.245 0 2.321-0.404 3.229-1.207 0.829-0.726 1.244-1.608 1.244-2.645 0-0.752-0.285-1.451-0.856-2.099-0.622-0.674-1.453-1.218-2.49-1.633-0.907-0.285-1.646-0.713-2.217-1.283-0.544-0.597-0.816-1.193-0.816-1.789 0-0.415 0.169-0.779 0.506-1.09 0.311-0.234 0.699-0.35 1.166-0.35 0.57 0 1.129 0.272 1.674 0.817 0.57 0.596 1.048 1.401 1.437 2.412h0.856l-0.233-3.889h-0.855c-0.052 0.13-0.105 0.206-0.157 0.232s-0.115 0.039-0.193 0.039c-0.233 0-0.558-0.09-0.973-0.271-0.544-0.182-1.141-0.273-1.789-0.273zm-21.012 0.274v0.66h0.702c0.259 0 0.505 0.092 0.738 0.273 0.233 0.234 0.349 0.532 0.349 0.895v7.349c0 0.96 0.364 1.802 1.09 2.528 0.7 0.7 1.516 1.051 2.449 1.051 0.96 0 1.778-0.195 2.452-0.584 0.726-0.415 1.166-0.753 1.322-1.012v1.672l4.393-1.399v-0.584h-0.971c-0.182 0-0.35-0.09-0.506-0.271-0.207-0.259-0.311-0.557-0.311-0.895v-9.683h-4.628v0.66h0.701c0.337 0 0.633 0.116 0.892 0.35 0.285 0.311 0.43 0.675 0.43 1.089v7.079c-0.311 0.518-0.714 0.946-1.207 1.283-0.441 0.259-0.908 0.388-1.4 0.388-0.545 0-1.023-0.195-1.438-0.584-0.441-0.44-0.662-0.971-0.662-1.593v-8.672zm-9.5 0.66c0.649 0 1.245 0.377 1.79 1.129 0.596 0.803 0.997 1.814 1.205 3.033h-5.911c0.312-1.348 0.713-2.359 1.206-3.033 0.518-0.752 1.088-1.129 1.71-1.129zm385.79 1.769c-1.529 0-2.825 0.634-3.888 1.905-1.063 1.296-1.596 2.787-1.596 4.472 0 1.815 0.533 3.372 1.596 4.668 1.063 1.323 2.346 1.983 3.849 1.983 1.478 0 2.8-0.428 3.967-1.283 1.115-0.856 1.854-1.946 2.217-3.268l-0.662-0.467c-0.571 0.985-1.231 1.711-1.983 2.178-0.7 0.467-1.439 0.701-2.216 0.701-1.193 0-2.217-0.467-3.073-1.4-0.881-0.986-1.322-2.152-1.322-3.5h8.594c0-1.686-0.518-3.085-1.555-4.2-1.063-1.192-2.372-1.789-3.928-1.789zm13.855 0c-1.063 0-1.957 0.376-2.683 1.127-0.7 0.649-1.051 1.44-1.051 2.373 0 0.804 0.325 1.543 0.973 2.217 0.674 0.778 1.555 1.374 2.644 1.789 0.83 0.26 1.479 0.635 1.945 1.127 0.493 0.519 0.739 1.036 0.739 1.555 0 0.57-0.195 1.037-0.584 1.4-0.441 0.389-0.946 0.584-1.516 0.584-0.726 0-1.414-0.364-2.062-1.089-0.649-0.675-1.063-1.594-1.244-2.76h-0.895l0.234 4.433h0.856l0.389-0.466c0.233 0.207 0.608 0.376 1.127 0.505 0.492 0.156 1.025 0.233 1.595 0.233 1.245 0 2.319-0.402 3.227-1.205 0.829-0.726 1.244-1.608 1.244-2.645 0-0.752-0.285-1.451-0.856-2.099-0.622-0.674-1.451-1.22-2.488-1.635-0.907-0.285-1.646-0.713-2.217-1.283-0.544-0.597-0.816-1.193-0.816-1.789 0-0.415 0.169-0.777 0.506-1.088 0.311-0.234 0.699-0.35 1.166-0.35 0.57 0 1.127 0.272 1.672 0.816 0.57 0.597 1.05 1.399 1.439 2.411h0.856l-0.233-3.889h-0.855c-0.052 0.13-0.105 0.208-0.157 0.234-0.051 0.026-0.117 0.039-0.195 0.039-0.233 0-0.556-0.092-0.971-0.273-0.544-0.181-1.14-0.272-1.789-0.272zm25.145 0c-1.529 0-2.825 0.634-3.888 1.905-1.063 1.296-1.596 2.787-1.596 4.472 0 1.815 0.533 3.372 1.596 4.668 1.063 1.323 2.346 1.983 3.849 1.983 1.478 0 2.8-0.428 3.967-1.283 1.115-0.856 1.854-1.946 2.217-3.268l-0.662-0.467c-0.571 0.985-1.231 1.711-1.983 2.178-0.7 0.467-1.439 0.701-2.216 0.701-1.193 0-2.217-0.467-3.073-1.4-0.881-0.986-1.322-2.152-1.322-3.5h8.594c0-1.686-0.518-3.085-1.555-4.2-1.063-1.192-2.372-1.789-3.928-1.789zm13.855 0c-1.063 0-1.957 0.376-2.683 1.127-0.7 0.649-1.051 1.44-1.051 2.373 0 0.804 0.325 1.543 0.973 2.217 0.674 0.778 1.555 1.374 2.644 1.789 0.83 0.26 1.479 0.635 1.945 1.127 0.493 0.519 0.739 1.036 0.739 1.555 0 0.57-0.195 1.037-0.584 1.4-0.441 0.389-0.946 0.584-1.516 0.584-0.726 0-1.414-0.364-2.062-1.089-0.649-0.675-1.063-1.594-1.244-2.76h-0.895l0.234 4.433h0.856l0.389-0.466c0.233 0.207 0.608 0.376 1.127 0.505 0.492 0.156 1.025 0.233 1.595 0.233 1.245 0 2.319-0.402 3.227-1.205 0.829-0.726 1.244-1.608 1.244-2.645 0-0.752-0.285-1.451-0.856-2.099-0.622-0.674-1.451-1.22-2.488-1.635-0.907-0.285-1.646-0.713-2.217-1.283-0.544-0.597-0.816-1.193-0.816-1.789 0-0.415 0.169-0.777 0.506-1.088 0.311-0.234 0.699-0.35 1.166-0.35 0.57 0 1.127 0.272 1.672 0.816 0.57 0.597 1.05 1.399 1.439 2.411h0.856l-0.233-3.889h-0.855c-0.052 0.13-0.105 0.208-0.157 0.234-0.051 0.026-0.117 0.039-0.195 0.039-0.233 0-0.556-0.092-0.971-0.273-0.544-0.181-1.14-0.272-1.789-0.272zm-74.955 0.272v0.662c0.389 0 0.712 0.103 0.971 0.311 0.311 0.285 0.572 0.66 0.779 1.127l4.549 10.111-0.972 2.527c-0.182 0.441-0.401 0.791-0.661 1.051-0.259 0.285-0.493 0.427-0.701 0.427-0.026 0-0.129-0.039-0.31-0.117l-0.35-0.154c-0.467-0.182-0.921-0.274-1.361-0.274-0.415 0-0.766 0.156-1.051 0.467-0.233 0.337-0.35 0.701-0.35 1.09 0 0.337 0.209 0.648 0.623 0.934 0.389 0.259 0.843 0.388 1.362 0.388 0.907 0 1.736-0.364 2.488-1.089 0.7-0.675 1.244-1.594 1.633-2.76l4.939-12.602c0.156-0.467 0.388-0.829 0.699-1.088 0.234-0.234 0.558-0.35 0.973-0.35v-0.662h-4.16v0.662h0.66c0.156 0 0.285 0.038 0.389 0.115 0.129 0.052 0.195 0.171 0.195 0.352 0 0.363-0.039 0.699-0.117 1.01l-2.645 7.078-3.189-7.117c-0.078-0.182-0.115-0.388-0.115-0.621 0-0.234 0.063-0.455 0.193-0.662 0.104-0.104 0.22-0.155 0.35-0.155h1.089v-0.662zm21.943 0.662c0.649 0 1.245 0.375 1.789 1.127 0.597 0.804 0.998 1.815 1.206 3.033h-5.911c0.312-1.348 0.713-2.359 1.205-3.033 0.519-0.752 1.089-1.127 1.711-1.127zm39 0c0.649 0 1.245 0.375 1.789 1.127 0.597 0.804 0.998 1.815 1.206 3.033h-5.911c0.312-1.348 0.713-2.359 1.205-3.033 0.519-0.752 1.089-1.127 1.711-1.127zm-610.81 81.658-6.6113 15.557c-0.2593 0.778-0.6232 1.385-1.0898 1.826-0.4407 0.441-0.919 0.662-1.4375 0.662v0.584h5.6777v-0.584h-0.7012c-0.2852 0-0.5571-0.103-0.8164-0.31-0.2592-0.182-0.3886-0.442-0.3886-0.78 0-0.414 0.1031-0.879 0.3105-1.398l1.2832-2.996h6.8457l1.3223 2.996c0.2333 0.674 0.3496 1.139 0.3496 1.398 0 0.338-0.1163 0.598-0.3496 0.78-0.2074 0.207-0.4419 0.31-0.7012 0.31h-0.7383v0.584h6.9609v-0.584c-0.4666 0-0.8811-0.221-1.2441-0.662-0.4148-0.441-0.7524-1.048-1.0117-1.826l-6.9609-15.557zm350.52 1.502-4.666 1.129v0.582h1.206c0.207 0 0.376 0.105 0.505 0.312 0.208 0.26 0.311 0.558 0.311 0.895v13.883c0 0.441-0.143 0.803-0.428 1.088-0.259 0.259-0.557 0.389-0.894 0.389h-0.7v0.584h6.651v-0.584h-0.701c-0.286 0-0.571-0.13-0.856-0.389-0.285-0.285-0.428-0.647-0.428-1.088zm-78.016 0.584v0.621h0.7c0.492 0 0.946 0.182 1.361 0.545 0.363 0.415 0.545 0.895 0.545 1.439v12.871c0 0.623-0.195 1.155-0.584 1.596-0.389 0.415-0.83 0.621-1.322 0.621h-0.7v0.584h6.651v-0.584h-0.701c-0.467 0-0.882-0.206-1.245-0.621-0.363-0.441-0.544-0.973-0.544-1.595v-11.16l6.767 14.232h0.621l6.651-14.895v11.822c0 0.622-0.182 1.155-0.545 1.595-0.311 0.415-0.647 0.621-1.01 0.621h-0.701v0.584h7.662v-0.584h-0.701c-0.389 0-0.751-0.206-1.088-0.621-0.337-0.441-0.506-0.973-0.506-1.595v-13.143c0-0.493 0.169-0.91 0.506-1.247 0.337-0.311 0.699-0.466 1.088-0.466h0.701v-0.621h-5.561l-5.873 13.572-6.533-13.572zm334.65 1.842-4.394 1.127v0.584h0.699c0.259 0 0.505 0.103 0.738 0.31 0.234 0.26 0.352 0.558 0.352 0.895v13.65c0 0.467-0.129 0.894-0.389 1.283-0.207 0.285-0.442 0.428-0.701 0.428h-0.699v0.584h6.183v-0.584h-0.701c-0.259 0-0.505-0.13-0.738-0.389-0.233-0.285-0.35-0.647-0.35-1.088v-7.195c0.415-0.57 0.869-1.024 1.362-1.361 0.492-0.286 0.997-0.428 1.515-0.428 0.467 0 0.882 0.156 1.244 0.467 0.389 0.415 0.584 0.908 0.584 1.478v7.039c0 0.441-0.09 0.803-0.271 1.088-0.156 0.259-0.351 0.389-0.584 0.389h-0.623v0.584h5.873v-0.584h-0.662c-0.285 0-0.531-0.13-0.738-0.389-0.26-0.285-0.389-0.647-0.389-1.088v-7.039c0-0.985-0.351-1.84-1.051-2.566-0.726-0.726-1.607-1.09-2.644-1.09-0.804 0-1.554 0.208-2.254 0.623-0.726 0.441-1.18 0.829-1.362 1.166zm-58.816 0.078c-0.466 0-0.83 0.129-1.089 0.389-0.286 0.285-0.428 0.596-0.428 0.933 0 0.415 0.129 0.777 0.389 1.088 0.285 0.363 0.609 0.545 0.972 0.545 0.545 0 0.959-0.182 1.244-0.545 0.234-0.311 0.35-0.673 0.35-1.088 0-0.337-0.116-0.635-0.35-0.894-0.285-0.286-0.647-0.428-1.088-0.428zm24.639 0c-0.466 0-0.83 0.129-1.089 0.389-0.286 0.285-0.428 0.596-0.428 0.933 0 0.415 0.129 0.777 0.389 1.088 0.285 0.363 0.609 0.545 0.972 0.545 0.545 0 0.959-0.182 1.244-0.545 0.234-0.311 0.35-0.673 0.35-1.088 0-0.337-0.116-0.635-0.35-0.894-0.285-0.286-0.647-0.428-1.088-0.428zm-40.479 0.154-6.611 15.557c-0.259 0.778-0.621 1.388-1.088 1.828-0.441 0.441-0.921 0.66-1.439 0.66v0.584h5.677v-0.584h-0.699c-0.285 0-0.557-0.103-0.816-0.31-0.259-0.182-0.391-0.44-0.391-0.777 0-0.415 0.105-0.882 0.313-1.401l1.283-2.994h6.844l1.322 2.994c0.233 0.674 0.35 1.141 0.35 1.401 0 0.337-0.117 0.595-0.35 0.777-0.207 0.207-0.44 0.31-0.699 0.31h-0.741v0.584h6.961v-0.584c-0.466 0-0.881-0.219-1.244-0.66-0.415-0.44-0.75-1.05-1.01-1.828l-6.961-15.557zm-532.88 0.195 3.1113 7.118h-6.1191zm47.943 1.479-4.666 1.361v0.582h1.205c0.208 0 0.39 0.079 0.545 0.235 0.182 0.207 0.272 0.453 0.272 0.738v7.816c0 0.441-0.143 0.805-0.428 1.09-0.259 0.259-0.557 0.389-0.894 0.389h-0.7v0.584h6.416v-0.584h-0.66c-0.259 0-0.507-0.13-0.74-0.389-0.233-0.285-0.35-0.649-0.35-1.09v-7.621c0.312-0.44 0.739-0.817 1.284-1.129 0.492-0.259 1.038-0.388 1.634-0.388 0.467 0 0.855 0.169 1.166 0.506 0.389 0.337 0.584 0.777 0.584 1.322v7.311c0 0.44-0.118 0.804-0.351 1.089-0.208 0.26-0.453 0.389-0.738 0.389h-0.623v0.584h6.378v-0.584h-0.699c-0.337 0-0.635-0.129-0.894-0.389-0.26-0.285-0.391-0.649-0.391-1.089v-7.428c0.337-0.545 0.778-0.959 1.322-1.244 0.467-0.311 0.96-0.467 1.479-0.467 0.57 0 1.064 0.208 1.478 0.623 0.415 0.493 0.621 1.063 0.621 1.711v6.805c0 0.44-0.129 0.804-0.388 1.089-0.182 0.26-0.414 0.389-0.699 0.389h-0.663v0.584h6.145v-0.584h-0.66c-0.259 0-0.507-0.129-0.74-0.389-0.234-0.285-0.35-0.649-0.35-1.089v-6.573c0-1.089-0.336-2.034-1.01-2.838-0.622-0.855-1.44-1.283-2.451-1.283-0.933 0-1.828 0.193-2.684 0.582-0.829 0.363-1.45 0.804-1.865 1.322-0.259-0.492-0.689-0.92-1.285-1.283-0.57-0.415-1.204-0.621-1.904-0.621-0.623 0-1.285 0.18-1.985 0.543-0.674 0.285-1.244 0.623-1.711 1.012zm39.65 0-4.666 1.361v0.582h1.205c0.208 0 0.39 0.079 0.545 0.235 0.182 0.207 0.272 0.453 0.272 0.738v7.816c0 0.441-0.143 0.805-0.428 1.09-0.259 0.259-0.557 0.389-0.894 0.389h-0.7v0.584h6.416v-0.584h-0.66c-0.259 0-0.507-0.13-0.74-0.389-0.233-0.285-0.35-0.649-0.35-1.09v-7.621c0.312-0.44 0.739-0.817 1.284-1.129 0.492-0.259 1.036-0.388 1.632-0.388 0.467 0 0.857 0.169 1.168 0.506 0.389 0.337 0.582 0.777 0.582 1.322v7.311c0 0.44-0.116 0.804-0.349 1.089-0.208 0.26-0.453 0.389-0.738 0.389h-0.623v0.584h6.378v-0.584h-0.701c-0.337 0-0.635-0.129-0.894-0.389-0.26-0.285-0.389-0.649-0.389-1.089v-7.428c0.337-0.545 0.778-0.959 1.322-1.244 0.467-0.311 0.96-0.467 1.479-0.467 0.57 0 1.062 0.208 1.476 0.623 0.415 0.493 0.623 1.063 0.623 1.711v6.805c0 0.44-0.129 0.804-0.388 1.089-0.182 0.26-0.414 0.389-0.699 0.389h-0.663v0.584h6.145v-0.584h-0.66c-0.259 0-0.507-0.129-0.74-0.389-0.234-0.285-0.35-0.649-0.35-1.089v-6.573c0-1.089-0.338-2.034-1.012-2.838-0.622-0.855-1.438-1.283-2.449-1.283-0.933 0-1.828 0.193-2.684 0.582-0.829 0.363-1.452 0.804-1.867 1.322-0.259-0.492-0.687-0.92-1.283-1.283-0.57-0.415-1.204-0.621-1.904-0.621-0.622 0-1.285 0.18-1.985 0.543-0.674 0.285-1.244 0.623-1.711 1.012zm24.084 0-4.394 1.361v0.582h0.973c0.181 0 0.361 0.105 0.543 0.313 0.181 0.285 0.273 0.583 0.273 0.894v7.582c0 0.441-0.129 0.805-0.389 1.09-0.207 0.259-0.442 0.389-0.701 0.389h-0.699v0.584h6.183v-0.584h-0.701c-0.259 0-0.505-0.13-0.738-0.389-0.233-0.285-0.35-0.649-0.35-1.09v-7.427c0.467-0.545 0.932-0.959 1.399-1.244 0.467-0.312 0.87-0.467 1.207-0.467 0.492 0 0.907 0.182 1.244 0.545 0.415 0.44 0.621 0.958 0.621 1.554v7.04c0 0.44-0.103 0.804-0.311 1.089-0.155 0.26-0.337 0.389-0.544 0.389h-0.7v0.584h5.95v-0.584h-0.739c-0.259 0-0.492-0.129-0.699-0.389-0.233-0.285-0.35-0.649-0.35-1.089v-7.04c0-0.985-0.311-1.827-0.933-2.527-0.648-0.752-1.44-1.127-2.373-1.127-0.752 0-1.491 0.193-2.217 0.582-0.726 0.363-1.244 0.74-1.555 1.129zm32.922 0-4.394 1.361v0.582h0.973c0.181 0 0.361 0.105 0.543 0.313 0.181 0.285 0.273 0.583 0.273 0.894v7.582c0 0.441-0.129 0.805-0.389 1.09-0.207 0.259-0.442 0.389-0.701 0.389h-0.699v0.584h6.183v-0.584h-0.701c-0.259 0-0.505-0.13-0.738-0.389-0.233-0.285-0.35-0.649-0.35-1.09v-7.427c0.467-0.545 0.934-0.959 1.401-1.244 0.467-0.312 0.868-0.467 1.205-0.467 0.493 0 0.907 0.182 1.244 0.545 0.415 0.44 0.623 0.958 0.623 1.554v7.04c0 0.44-0.105 0.804-0.312 1.089-0.156 0.26-0.336 0.389-0.543 0.389h-0.702v0.584h5.952v-0.584h-0.741c-0.259 0-0.491-0.129-0.699-0.389-0.233-0.285-0.349-0.649-0.349-1.089v-7.04c0-0.985-0.312-1.827-0.934-2.527-0.648-0.752-1.44-1.127-2.373-1.127-0.752 0-1.491 0.193-2.217 0.582-0.726 0.363-1.243 0.74-1.555 1.129zm-125.92 0.039c-1.2963 0-2.4124 0.428-3.3457 1.283-0.9074 0.804-1.3613 1.749-1.3613 2.838 0 0.959 0.2345 1.804 0.7012 2.529 0.4666 0.778 1.0763 1.283 1.8281 1.516-0.726 0.519-1.3093 1.049-1.75 1.594-0.4408 0.518-0.6621 0.999-0.6621 1.439 0 0.337 0.1425 0.636 0.4277 0.895 0.2333 0.285 0.5447 0.506 0.9336 0.662-0.8037 0.467-1.4639 0.997-1.9824 1.594-0.4926 0.57-0.7402 1.127-0.7402 1.672 0 0.752 0.4933 1.414 1.4785 1.984 0.9592 0.545 2.0734 0.817 3.3438 0.817 2.3593 0 4.2387-0.441 5.6387-1.323 1.3482-0.881 2.0234-2.048 2.0234-3.5 0-0.907-0.5065-1.633-1.5176-2.177-1.0111-0.467-2.5023-0.702-4.4726-0.702-0.8815 0-1.6317-0.09-2.2539-0.271-0.5704-0.156-0.8555-0.377-0.8555-0.662 0-0.234 0.3488-0.699 1.0488-1.399l0.3105-0.312c0.2852 0.104 0.8686 0.156 1.75 0.156 1.2444 0 2.3211-0.428 3.2285-1.283 0.8297-0.83 1.2441-1.828 1.2441-2.994 0-0.596-0.0637-1.116-0.1933-1.557-0.0778-0.466-0.2203-0.789-0.4278-0.97h2.1387v-1.051h-2.8789c-0.8555-0.519-2.0728-0.778-3.6543-0.778zm14.865 0c-1.1667 0-2.1645 0.311-2.9941 0.934-0.8296 0.518-1.2441 1.165-1.2441 1.943 0 0.337 0.1163 0.635 0.3496 0.895 0.2852 0.259 0.6228 0.388 1.0117 0.388 0.4148 0 0.7525-0.103 1.0117-0.31 0.2333-0.208 0.3496-0.453 0.3496-0.739 0-0.077-0.0263-0.246-0.0781-0.505l-0.1172-0.741c0-0.311 0.1689-0.57 0.5059-0.777 0.337-0.181 0.7384-0.271 1.2051-0.271 0.5704 0 1.0506 0.155 1.4395 0.466 0.4407 0.363 0.6621 0.804 0.6621 1.323v1.867c-2.0222 0.57-3.7085 1.334-5.0566 2.293-1.3481 1.037-2.0215 2.1-2.0215 3.189 0 0.83 0.2719 1.543 0.8164 2.139 0.5704 0.622 1.2306 0.934 1.9824 0.934 1.0889 0 2.0493-0.156 2.8789-0.467 0.8037-0.337 1.2839-0.622 1.4395-0.856 0 0.182 0.18 0.428 0.543 0.739 0.3888 0.389 0.8428 0.584 1.3613 0.584 0.674 0 1.2574-0.182 1.7495-0.545 0.519-0.363 0.883-0.83 1.09-1.401l-0.662-0.232c-0.155 0.207-0.272 0.35-0.349 0.428-0.13 0.077-0.233 0.117-0.311 0.117-0.2074 0-0.4025-0.079-0.584-0.235-0.1555-0.181-0.2324-0.414-0.2324-0.699v-6.572c0-1.244-0.4033-2.192-1.207-2.84-0.8037-0.7-1.9835-1.049-3.5391-1.049zm40.039 0c-1.529 0-2.825 0.634-3.888 1.904-1.063 1.297-1.594 2.788-1.594 4.473 0 1.815 0.531 3.37 1.594 4.666 1.063 1.322 2.346 1.984 3.849 1.984 1.478 0 2.8-0.427 3.967-1.283 1.115-0.855 1.854-1.945 2.217-3.267l-0.66-0.467c-0.571 0.985-1.233 1.711-1.985 2.178-0.7 0.466-1.439 0.701-2.216 0.701-1.193 0-2.217-0.467-3.073-1.401-0.881-0.985-1.322-2.151-1.322-3.5h8.596c0-1.685-0.52-3.084-1.557-4.199-1.063-1.192-2.372-1.789-3.928-1.789zm56.695 0c-1.737 0-3.215 0.634-4.433 1.904-1.193 1.271-1.789 2.762-1.789 4.473 0 1.815 0.596 3.37 1.789 4.666 1.218 1.322 2.644 1.984 4.277 1.984 1.867 0 3.424-0.662 4.668-1.984 1.167-1.296 1.75-2.851 1.75-4.666 0-1.711-0.583-3.202-1.75-4.473-1.244-1.27-2.749-1.904-4.512-1.904zm465.81 0.932c-0.285 0.752-0.726 1.453-1.322 2.101s-1.335 1.232-2.217 1.75v0.817h1.789v8.75c0 0.752 0.235 1.412 0.702 1.982 0.44 0.571 0.958 0.856 1.554 0.856 0.856 0 1.595-0.156 2.217-0.467 0.622-0.337 1.089-0.791 1.4-1.361l-0.584-0.389c-0.207 0.285-0.426 0.467-0.66 0.545-0.181 0.129-0.403 0.195-0.662 0.195-0.363 0-0.674-0.129-0.933-0.389-0.286-0.363-0.428-0.766-0.428-1.207v-8.671h2.801v-1.012h-2.801v-3.5zm-522.66 2e-3c0.649 0 1.245 0.375 1.789 1.127 0.597 0.803 0.998 1.814 1.206 3.033h-5.913c0.312-1.348 0.715-2.359 1.207-3.033 0.519-0.752 1.089-1.127 1.711-1.127zm56.383 0c1.089 0 2.035 0.557 2.838 1.672 0.856 1.166 1.285 2.605 1.285 4.316 0 1.452-0.337 2.695-1.011 3.732-0.571 1.012-1.336 1.518-2.295 1.518s-1.854-0.596-2.684-1.789c-0.829-1.244-1.244-2.736-1.244-4.473 0-1.4 0.325-2.593 0.973-3.578 0.596-0.933 1.309-1.398 2.139-1.398zm-111.33 0.154c0.7259 0 1.3749 0.401 1.9453 1.205 0.5963 0.83 0.8945 1.867 0.8945 3.111 0 0.675-0.1819 1.234-0.5449 1.674-0.3889 0.415-0.8822 0.621-1.4785 0.621-0.6481 0-1.2446-0.388-1.7891-1.166-0.6222-0.855-0.9316-1.906-0.9316-3.15 0-0.648 0.2062-1.218 0.6211-1.711 0.3629-0.389 0.7906-0.584 1.2832-0.584zm300.67 0.607-4.394 1.362v0.584h0.971c0.181 0 0.363 0.103 0.545 0.31 0.181 0.285 0.271 0.584 0.271 0.895v7.584c0 0.441-0.129 0.803-0.389 1.088-0.207 0.259-0.44 0.388-0.699 0.388h-0.699v0.584h6.181v-0.584h-0.699c-0.259 0-0.505-0.129-0.738-0.388-0.233-0.285-0.35-0.647-0.35-1.088v-7.428c0.467-0.544 0.932-0.959 1.399-1.244 0.466-0.311 0.87-0.467 1.207-0.467 0.492 0 0.907 0.18 1.244 0.543 0.415 0.441 0.621 0.961 0.621 1.557v7.039c0 0.441-0.103 0.803-0.311 1.088-0.155 0.259-0.337 0.388-0.544 0.388h-0.7v0.584h5.949v-0.584h-0.738c-0.259 0-0.492-0.129-0.699-0.388-0.233-0.285-0.352-0.647-0.352-1.088v-7.039c0-0.985-0.311-1.827-0.933-2.527-0.648-0.752-1.438-1.129-2.371-1.129-0.752 0-1.491 0.195-2.217 0.584-0.726 0.363-1.244 0.738-1.555 1.127zm-13.857 0.04c-1.529 0-2.825 0.635-3.888 1.906-1.063 1.296-1.594 2.787-1.594 4.472 0 1.815 0.531 3.37 1.594 4.666 1.063 1.323 2.348 1.983 3.851 1.983 1.478 0 2.798-0.428 3.965-1.283 1.115-0.856 1.854-1.944 2.217-3.266l-0.66-0.467c-0.571 0.985-1.233 1.711-1.985 2.178-0.7 0.467-1.437 0.699-2.214 0.699-1.193 0-2.217-0.465-3.073-1.398-0.881-0.985-1.322-2.152-1.322-3.5h8.594c0-1.685-0.52-3.087-1.557-4.201-1.063-1.193-2.372-1.79-3.928-1.79zm31.756 0c-1.529 0-2.825 0.635-3.888 1.906-1.063 1.296-1.594 2.787-1.594 4.472 0 1.815 0.531 3.37 1.594 4.666 1.063 1.323 2.346 1.983 3.849 1.983 1.478 0 2.8-0.428 3.967-1.283 1.115-0.856 1.854-1.944 2.217-3.266l-0.66-0.467c-0.571 0.985-1.233 1.711-1.985 2.178-0.7 0.467-1.439 0.699-2.216 0.699-1.193 0-2.217-0.465-3.073-1.398-0.881-0.985-1.322-2.152-1.322-3.5h8.596c0-1.685-0.52-3.087-1.557-4.201-1.063-1.193-2.372-1.79-3.928-1.79zm24.096 0c-1.166 0-2.166 0.311-2.996 0.933-0.829 0.519-1.244 1.168-1.244 1.945 0 0.337 0.118 0.636 0.352 0.895 0.285 0.259 0.621 0.389 1.01 0.389 0.414 0 0.752-0.105 1.011-0.313 0.234-0.207 0.35-0.453 0.35-0.738 0-0.078-0.026-0.247-0.078-0.506l-0.115-0.738c0-0.311 0.166-0.57 0.503-0.778 0.337-0.181 0.741-0.273 1.207-0.273 0.571 0 1.049 0.156 1.438 0.467 0.441 0.363 0.662 0.803 0.662 1.322v1.867c-2.022 0.571-3.708 1.336-5.057 2.295-1.348 1.037-2.021 2.099-2.021 3.188 0 0.829 0.272 1.544 0.816 2.14 0.571 0.622 1.233 0.932 1.985 0.932 1.089 0 2.047-0.154 2.877-0.465 0.803-0.337 1.284-0.624 1.439-0.857 0 0.181 0.182 0.429 0.545 0.74 0.389 0.389 0.841 0.582 1.36 0.582 0.674 0 1.257-0.18 1.75-0.543 0.518-0.363 0.882-0.83 1.089-1.4l-0.662-0.235c-0.155 0.208-0.272 0.35-0.349 0.428-0.13 0.078-0.233 0.117-0.311 0.117-0.207 0-0.402-0.077-0.584-0.232-0.155-0.182-0.232-0.416-0.232-0.702v-6.572c0-1.244-0.402-2.19-1.205-2.838-0.804-0.7-1.984-1.051-3.54-1.051zm30.744 0c-1.063 0-1.957 0.377-2.683 1.128-0.7 0.649-1.051 1.438-1.051 2.372 0 0.803 0.325 1.542 0.973 2.216 0.674 0.778 1.555 1.375 2.644 1.789 0.83 0.26 1.479 0.635 1.945 1.127 0.493 0.519 0.739 1.039 0.739 1.557 0 0.57-0.195 1.037-0.584 1.4-0.441 0.389-0.946 0.582-1.516 0.582-0.726 0-1.414-0.361-2.062-1.087-0.648-0.674-1.063-1.596-1.244-2.762h-0.895l0.234 4.433h0.856l0.389-0.466c0.233 0.207 0.608 0.376 1.127 0.506 0.492 0.155 1.025 0.232 1.595 0.232 1.245 0 2.319-0.401 3.227-1.205 0.829-0.726 1.244-1.608 1.244-2.645 0-0.751-0.285-1.451-0.856-2.099-0.622-0.674-1.451-1.218-2.488-1.633-0.907-0.285-1.646-0.713-2.217-1.283-0.544-0.597-0.816-1.193-0.816-1.789 0-0.415 0.169-0.779 0.506-1.09 0.311-0.233 0.699-0.35 1.166-0.35 0.57 0 1.127 0.272 1.672 0.817 0.57 0.596 1.05 1.401 1.439 2.412h0.856l-0.233-3.889h-0.855c-0.052 0.13-0.105 0.207-0.156 0.232-0.052 0.026-0.118 0.04-0.196 0.04-0.233 0-0.556-0.09-0.97-0.272-0.545-0.181-1.141-0.273-1.79-0.273zm-21.012 0.273v0.66h0.7c0.259 0 0.507 0.09 0.74 0.272 0.233 0.233 0.349 0.531 0.349 0.894v7.352c0 0.959 0.364 1.801 1.09 2.527 0.7 0.7 1.516 1.049 2.449 1.049 0.96 0 1.776-0.193 2.45-0.582 0.726-0.415 1.166-0.753 1.322-1.012v1.672l4.394-1.4v-0.582h-0.972c-0.182 0-0.349-0.092-0.504-0.274-0.208-0.259-0.313-0.557-0.313-0.894v-9.682h-4.627v0.66h0.7c0.337 0 0.635 0.116 0.894 0.35 0.285 0.311 0.428 0.675 0.428 1.09v7.078c-0.311 0.518-0.713 0.946-1.205 1.283-0.441 0.259-0.908 0.389-1.401 0.389-0.544 0-1.022-0.196-1.437-0.584-0.441-0.441-0.662-0.972-0.662-1.594v-8.672zm161.61 0.635 3.112 7.117h-6.118zm-227.35 0.025c0.649 0 1.245 0.377 1.789 1.129 0.597 0.804 0.998 1.815 1.206 3.033h-5.913c0.312-1.348 0.715-2.359 1.207-3.033 0.519-0.752 1.089-1.129 1.711-1.129zm31.756 0c0.649 0 1.245 0.377 1.789 1.129 0.597 0.804 0.998 1.815 1.206 3.033h-5.913c0.312-1.348 0.715-2.359 1.207-3.033 0.519-0.752 1.089-1.129 1.711-1.129zm213.19 1.414-4.668 1.596v0.389h1.44c0.155 0 0.298 0.077 0.428 0.232 0.103 0.104 0.156 0.259 0.156 0.467v8.09c0 0.44-0.143 0.802-0.428 1.088-0.259 0.259-0.557 0.388-0.894 0.388h-0.702v0.584h6.418v-0.584h-0.662c-0.259 0-0.505-0.129-0.738-0.388-0.233-0.286-0.35-0.648-0.35-1.088zm24.639 0-4.668 1.596v0.389h1.44c0.155 0 0.298 0.077 0.428 0.232 0.103 0.104 0.156 0.259 0.156 0.467v8.09c0 0.44-0.143 0.802-0.428 1.088-0.259 0.259-0.557 0.388-0.894 0.388h-0.702v0.584h6.418v-0.584h-0.662c-0.259 0-0.505-0.129-0.738-0.388-0.233-0.286-0.35-0.648-0.35-1.088zm-14.129 0.078c-1.296 0-2.41 0.428-3.343 1.284-0.908 0.803-1.362 1.751-1.362 2.839 0 0.96 0.233 1.802 0.7 2.528 0.466 0.778 1.076 1.282 1.828 1.515-0.726 0.519-1.31 1.052-1.75 1.596-0.441 0.519-0.661 0.997-0.661 1.438 0 0.337 0.143 0.635 0.428 0.894 0.234 0.285 0.545 0.507 0.934 0.662-0.804 0.467-1.466 0.998-1.985 1.594-0.492 0.57-0.738 1.127-0.738 1.672 0 0.752 0.491 1.414 1.477 1.984 0.959 0.545 2.075 0.817 3.345 0.817 2.36 0 4.239-0.441 5.639-1.323 1.348-0.881 2.022-2.048 2.022-3.5 0-0.907-0.505-1.633-1.516-2.177-1.011-0.467-2.502-0.7-4.473-0.7-0.881 0-1.633-0.091-2.256-0.273-0.57-0.155-0.855-0.375-0.855-0.66 0-0.233 0.351-0.7 1.051-1.4l0.31-0.311c0.285 0.104 0.869 0.154 1.75 0.154 1.245 0 2.321-0.427 3.229-1.283 0.829-0.83 1.244-1.827 1.244-2.994 0-0.596-0.066-1.114-0.195-1.555-0.078-0.466-0.221-0.791-0.428-0.972h2.139v-1.051h-2.877c-0.856-0.519-2.075-0.778-3.657-0.778zm23.434 0c-1.063 0-1.957 0.375-2.683 1.127-0.7 0.649-1.049 1.44-1.049 2.373 0 0.804 0.323 1.543 0.971 2.217 0.674 0.778 1.555 1.374 2.644 1.789 0.83 0.26 1.479 0.635 1.945 1.127 0.493 0.519 0.739 1.038 0.739 1.557 0 0.57-0.193 1.037-0.582 1.4-0.441 0.389-0.947 0.582-1.518 0.582-0.726 0-1.412-0.362-2.06-1.088-0.649-0.674-1.063-1.595-1.245-2.761h-0.894l0.232 4.433h0.856l0.388-0.466c0.234 0.207 0.611 0.376 1.129 0.505 0.493 0.156 1.024 0.233 1.594 0.233 1.245 0 2.321-0.402 3.229-1.205 0.829-0.726 1.244-1.608 1.244-2.645 0-0.752-0.285-1.451-0.856-2.099-0.622-0.674-1.453-1.218-2.49-1.633-0.907-0.285-1.646-0.713-2.217-1.283-0.544-0.597-0.816-1.193-0.816-1.79 0-0.414 0.169-0.778 0.506-1.089 0.311-0.234 0.701-0.35 1.168-0.35 0.57 0 1.127 0.272 1.672 0.816 0.57 0.597 1.048 1.401 1.437 2.413h0.856l-0.233-3.891h-0.855c-0.052 0.13-0.105 0.208-0.156 0.234-0.052 0.026-0.116 0.039-0.194 0.039-0.233 0-0.558-0.092-0.973-0.273-0.544-0.181-1.14-0.271-1.789-0.271zm42.383 0c-1.737 0-3.215 0.636-4.433 1.907-1.193 1.27-1.789 2.759-1.789 4.47 0 1.815 0.596 3.372 1.789 4.668 1.218 1.322 2.646 1.983 4.279 1.983 1.867 0 3.422-0.661 4.666-1.983 1.167-1.296 1.75-2.853 1.75-4.668 0-1.711-0.583-3.2-1.75-4.47-1.244-1.271-2.749-1.907-4.512-1.907zm14.322 0c-1.063 0-1.957 0.375-2.683 1.127-0.7 0.649-1.049 1.44-1.049 2.373 0 0.804 0.325 1.543 0.973 2.217 0.674 0.778 1.553 1.374 2.642 1.789 0.83 0.26 1.479 0.635 1.946 1.127 0.492 0.519 0.738 1.038 0.738 1.557 0 0.57-0.193 1.037-0.582 1.4-0.441 0.389-0.947 0.582-1.518 0.582-0.726 0-1.412-0.362-2.06-1.088-0.649-0.674-1.063-1.595-1.245-2.761h-0.894l0.232 4.433h0.856l0.389-0.466c0.233 0.207 0.61 0.376 1.128 0.505 0.493 0.156 1.024 0.233 1.594 0.233 1.245 0 2.321-0.402 3.229-1.205 0.829-0.726 1.244-1.608 1.244-2.645 0-0.752-0.285-1.451-0.856-2.099-0.622-0.674-1.451-1.218-2.488-1.633-0.907-0.285-1.646-0.713-2.217-1.283-0.544-0.597-0.816-1.193-0.816-1.79 0-0.414 0.167-0.778 0.504-1.089 0.311-0.234 0.701-0.35 1.168-0.35 0.57 0 1.127 0.272 1.672 0.816 0.57 0.597 1.05 1.401 1.439 2.413h0.856l-0.235-3.891h-0.855c-0.052 0.13-0.105 0.208-0.157 0.234-0.051 0.026-0.115 0.039-0.193 0.039-0.233 0-0.558-0.092-0.973-0.273-0.544-0.181-1.14-0.271-1.789-0.271zm-14.789 0.934c1.089 0 2.036 0.557 2.84 1.672 0.856 1.167 1.283 2.605 1.283 4.316 0 1.452-0.337 2.698-1.011 3.735-0.571 1.011-1.336 1.515-2.295 1.515s-1.852-0.596-2.682-1.789c-0.829-1.244-1.246-2.734-1.246-4.471 0-1.4 0.325-2.592 0.973-3.578 0.596-0.933 1.309-1.4 2.138-1.4zm-65.543 0.156c0.726 0 1.373 0.402 1.944 1.205 0.596 0.83 0.894 1.867 0.894 3.112 0 0.674-0.182 1.231-0.545 1.672-0.388 0.414-0.88 0.621-1.476 0.621-0.648 0-1.245-0.389-1.789-1.166-0.623-0.856-0.934-1.906-0.934-3.151 0-0.648 0.208-1.218 0.623-1.711 0.363-0.389 0.791-0.582 1.283-0.582zm-524.75 0.155v4.55c-0.3889 0.441-0.7528 0.766-1.0898 0.973-0.3889 0.259-0.7771 0.389-1.166 0.389-0.4667 0-0.9075-0.209-1.3223-0.623-0.4148-0.415-0.6231-0.92-0.6231-1.516 0-0.778 0.4277-1.517 1.2832-2.217 0.8037-0.7 1.7772-1.219 2.918-1.556zm327.6 1.736v4.549c-0.388 0.44-0.752 0.765-1.089 0.972-0.389 0.26-0.778 0.389-1.166 0.389-0.467 0-0.908-0.206-1.323-0.621s-0.623-0.921-0.623-1.518c0-0.778 0.43-1.517 1.285-2.217 0.804-0.7 1.776-1.217 2.916-1.554zm-346.71 5.769 3.6934 0.117c1.2704 0 2.2551 0.13 2.9551 0.389 0.6222 0.285 0.9336 0.687 0.9336 1.205 0 0.648-0.5177 1.245-1.5547 1.789-1.037 0.519-2.2168 0.778-3.5391 0.778-0.9852 0-1.8536-0.18-2.6055-0.543-0.8296-0.415-1.2441-0.882-1.2441-1.401 0-0.233 0.1294-0.557 0.3887-0.972 0.2592-0.415 0.5837-0.869 0.9726-1.362zm541.91 4.162 3.696 0.116c1.27 0 2.255 0.129 2.955 0.388 0.622 0.285 0.933 0.689 0.933 1.207 0 0.648-0.519 1.245-1.556 1.789-1.037 0.519-2.217 0.778-3.539 0.778-0.986 0-1.854-0.182-2.606-0.545-0.829-0.415-1.244-0.882-1.244-1.401 0-0.233 0.129-0.557 0.389-0.972 0.259-0.415 0.584-0.867 0.972-1.36zm-528.67 6.184-4.668 1.129v0.582h1.207c0.2074 0 0.3743 0.105 0.5039 0.312 0.2074 0.26 0.3125 0.558 0.3125 0.895v13.883c0 0.441-0.1425 0.803-0.4277 1.088-0.2593 0.259-0.5575 0.39-0.8946 0.39h-0.7011v0.583h6.6504v-0.582h-0.6993c-0.2851 0-0.5702-0.132-0.8554-0.391-0.2852-0.285-0.4278-0.647-0.4278-1.088zm-15.373 0.234c-2.9037 0-5.2239 0.919-6.9609 2.76-1.7111 1.841-2.5664 4.253-2.5664 7.235 0 2.748 0.8684 4.978 2.6055 6.689 1.7111 1.633 3.9544 2.449 6.7285 2.449 1.7889 0 3.3569-0.324 4.7051-0.972 1.4-0.649 2.4747-1.554 3.2266-2.721l-0.6992-0.545c-0.9852 0.959-2.0487 1.672-3.1895 2.139-1.1148 0.466-2.2158 0.699-3.3047 0.699-1.9704 0-3.5384-0.673-4.7051-2.022-1.2185-1.451-1.8281-3.357-1.8281-5.716 0-2.645 0.5833-4.783 1.75-6.416 1.1407-1.556 2.6319-2.334 4.4727-2.334 1.2704 0 2.4502 0.44 3.5391 1.322 1.1407 0.907 1.9829 2.151 2.5273 3.732h0.9726l-0.2734-6.22h-1.127c-0.0519 0.285-0.1813 0.478-0.3887 0.582-0.1814 0.155-0.4028 0.234-0.6621 0.234-0.1296 0-0.5178-0.143-1.166-0.428l-0.4277-0.117c-0.6482-0.233-1.7248-0.35-3.2285-0.35zm337.16 2.319-4.668 1.127v0.584h1.207c0.208 0 0.375 0.103 0.504 0.31 0.208 0.26 0.313 0.558 0.313 0.895v13.883c0 0.441-0.143 0.804-0.428 1.09-0.259 0.259-0.557 0.388-0.894 0.388h-0.702v0.584h6.651v-0.584h-0.699c-0.286 0-0.571-0.129-0.856-0.388-0.285-0.286-0.428-0.649-0.428-1.09zm-377.71 0.131c-1.5296 0-2.8651 0.934-4.0059 2.8-1.063 1.815-1.5938 4.032-1.5938 6.651 0 2.541 0.5308 4.718 1.5938 6.533 1.1407 1.789 2.4762 2.684 4.0059 2.684 0.4407 0 0.739-0.079 0.8945-0.235 0.1297-0.129 0.1934-0.285 0.1934-0.467 0-0.103-0.0375-0.18-0.1153-0.232-0.0778-0.13-0.1697-0.195-0.2734-0.195-1.037 0-1.9186-0.779-2.6445-2.334-0.7518-1.582-1.127-3.499-1.127-5.754 0-2.23 0.3488-4.111 1.0488-5.641 0.7259-1.581 1.5832-2.371 2.5684-2.371 0.1556 0 0.2587-0.039 0.3105-0.117 0.0778-0.104 0.1172-0.273 0.1172-0.506 0-0.311-0.1051-0.53-0.3125-0.66-0.1555-0.104-0.3749-0.156-0.6601-0.156zm209.58 0c-0.311 0-0.53 0.052-0.66 0.156-0.233 0.13-0.349 0.349-0.349 0.66 0 0.233 0.037 0.402 0.115 0.506 0.078 0.078 0.183 0.117 0.312 0.117 1.011 0 1.867 0.79 2.567 2.371 0.726 1.53 1.088 3.411 1.088 5.641 0 2.255-0.375 4.172-1.127 5.754-0.726 1.555-1.608 2.334-2.645 2.334-0.129 0-0.233 0.065-0.31 0.195-0.052 0.052-0.078 0.129-0.078 0.232 0 0.182 0.05 0.338 0.154 0.467 0.181 0.156 0.493 0.235 0.933 0.235 1.53 0 2.852-0.895 3.967-2.684 1.089-1.815 1.633-3.993 1.633-6.533 0-2.619-0.544-4.836-1.633-6.651-1.115-1.866-2.437-2.8-3.967-2.8zm-129.4 0.195c-0.285 0.752-0.726 1.451-1.322 2.1-0.596 0.648-1.335 1.231-2.217 1.75v0.816h1.789v8.75c0 0.752 0.233 1.414 0.7 1.984 0.44 0.571 0.96 0.856 1.556 0.856 0.856 0 1.593-0.156 2.215-0.467 0.622-0.337 1.089-0.791 1.4-1.361l-0.582-0.389c-0.207 0.285-0.428 0.465-0.662 0.543-0.181 0.13-0.401 0.195-0.66 0.195-0.363 0-0.674-0.129-0.933-0.388-0.286-0.363-0.428-0.765-0.428-1.205v-8.674h2.799v-1.01h-2.799v-3.5zm94.994 0c-0.285 0.752-0.726 1.451-1.322 2.1-0.596 0.648-1.335 1.231-2.217 1.75v0.816h1.789v8.75c0 0.752 0.233 1.414 0.7 1.984 0.44 0.571 0.96 0.856 1.556 0.856 0.856 0 1.595-0.156 2.217-0.467 0.622-0.337 1.087-0.791 1.398-1.361l-0.582-0.389c-0.207 0.285-0.428 0.465-0.662 0.543-0.181 0.13-0.401 0.195-0.66 0.195-0.363 0-0.674-0.129-0.933-0.388-0.286-0.363-0.428-0.765-0.428-1.205v-8.674h2.799v-1.01h-2.799v-3.5zm160.83 0.258v0.621h0.7c0.466 0 0.881 0.182 1.244 0.545 0.389 0.415 0.584 0.895 0.584 1.439v13.105c0 0.571-0.195 1.049-0.584 1.438-0.363 0.363-0.778 0.545-1.244 0.545h-0.7v0.584h7.932v-0.584h-0.66c-0.415 0-0.779-0.182-1.09-0.545-0.337-0.389-0.504-0.867-0.504-1.438v-6.029h7.971v6.029c0 0.571-0.167 1.049-0.504 1.438-0.337 0.363-0.701 0.545-1.09 0.545h-0.66v0.584h7.66v-0.584h-0.66c-0.441 0-0.818-0.182-1.129-0.545-0.311-0.389-0.467-0.867-0.467-1.438v-13.105c0-0.57 0.156-1.063 0.467-1.478 0.311-0.337 0.688-0.506 1.129-0.506h0.66v-0.621h-7.66v0.621h0.66c0.389 0 0.753 0.169 1.09 0.506 0.337 0.415 0.504 0.908 0.504 1.478v5.989h-7.971v-5.989c0-0.57 0.167-1.063 0.504-1.478 0.311-0.337 0.675-0.506 1.09-0.506h0.66v-0.621zm226.63 1.515-4.668 1.129v0.582h1.205c0.208 0 0.377 0.105 0.506 0.313 0.208 0.259 0.313 0.555 0.313 0.892v13.885c0 0.441-0.143 0.803-0.428 1.088-0.259 0.26-0.557 0.389-0.894 0.389h-0.702v0.584h6.651v-0.584h-0.699c-0.286 0-0.571-0.129-0.856-0.389-0.285-0.285-0.428-0.647-0.428-1.088zm-15.373 0.235c-2.903 0-5.224 0.919-6.961 2.76-1.711 1.84-2.566 4.252-2.566 7.234 0 2.748 0.869 4.976 2.606 6.687 1.711 1.634 3.952 2.452 6.726 2.452 1.789 0 3.359-0.325 4.707-0.973 1.4-0.648 2.475-1.556 3.227-2.723l-0.699-0.543c-0.986 0.96-2.049 1.672-3.19 2.139-1.115 0.467-2.216 0.699-3.305 0.699-1.97 0-3.54-0.673-4.707-2.021-1.218-1.452-1.826-3.358-1.826-5.717 0-2.644 0.584-4.785 1.75-6.418 1.141-1.556 2.63-2.332 4.471-2.332 1.27 0 2.45 0.441 3.539 1.322 1.141 0.908 1.985 2.151 2.529 3.733h0.971l-0.271-6.223h-1.127c-0.052 0.285-0.184 0.48-0.391 0.584-0.182 0.156-0.401 0.234-0.66 0.234-0.13 0-0.518-0.142-1.166-0.427l-0.428-0.117c-0.648-0.234-1.725-0.35-3.228-0.35zm-241.59 0.349c-1.529 0-2.865 0.933-4.006 2.799-1.063 1.815-1.593 4.032-1.593 6.651 0 2.54 0.53 4.718 1.593 6.533 1.141 1.789 2.477 2.683 4.006 2.683 0.441 0 0.739-0.077 0.895-0.232 0.13-0.13 0.193-0.285 0.193-0.467 0-0.104-0.037-0.182-0.115-0.234-0.078-0.13-0.17-0.194-0.273-0.194-1.037 0-1.919-0.778-2.645-2.334-0.752-1.581-1.127-3.5-1.127-5.755 0-2.23 0.349-4.109 1.049-5.639 0.726-1.582 1.583-2.373 2.568-2.373 0.156 0 0.259-0.038 0.311-0.115 0.078-0.104 0.117-0.273 0.117-0.506 0-0.311-0.105-0.533-0.312-0.662-0.156-0.104-0.375-0.155-0.661-0.155zm108.67 0c-0.311 0-0.53 0.051-0.66 0.155-0.233 0.129-0.351 0.351-0.351 0.662 0 0.233 0.039 0.402 0.117 0.506 0.078 0.077 0.181 0.115 0.31 0.115 1.012 0 1.869 0.791 2.569 2.373 0.726 1.529 1.088 3.409 1.088 5.639 0 2.255-0.375 4.174-1.127 5.755-0.726 1.556-1.608 2.334-2.645 2.334-0.129 0-0.235 0.064-0.312 0.194-0.052 0.052-0.076 0.13-0.076 0.234 0 0.182 0.05 0.337 0.154 0.467 0.181 0.156 0.493 0.232 0.933 0.232 1.53 0 2.852-0.894 3.967-2.683 1.089-1.815 1.633-3.993 1.633-6.533 0-2.619-0.544-4.836-1.633-6.651-1.115-1.866-2.437-2.799-3.967-2.799zm-307.07 0.83-4.666 1.362v0.584h1.205c0.208 0 0.39 0.077 0.545 0.232 0.182 0.208 0.272 0.455 0.272 0.74v7.817c0 0.441-0.143 0.802-0.428 1.088-0.259 0.259-0.557 0.39-0.894 0.39h-0.7v0.582h6.416v-0.582h-0.66c-0.259 0-0.507-0.131-0.74-0.39-0.233-0.285-0.35-0.647-0.35-1.088v-7.623c0.312-0.441 0.739-0.816 1.284-1.127 0.492-0.259 1.038-0.389 1.634-0.389 0.467 0 0.855 0.169 1.166 0.506 0.389 0.337 0.584 0.778 0.584 1.322v7.311c0 0.441-0.118 0.803-0.351 1.088-0.208 0.259-0.453 0.39-0.738 0.39h-0.623v0.582h6.378v-0.582h-0.701c-0.337 0-0.633-0.131-0.892-0.39-0.26-0.285-0.391-0.647-0.391-1.088v-7.428c0.337-0.544 0.778-0.959 1.322-1.244 0.467-0.311 0.96-0.467 1.479-0.467 0.57 0 1.064 0.207 1.478 0.621 0.415 0.493 0.621 1.063 0.621 1.711v6.807c0 0.441-0.129 0.803-0.388 1.088-0.182 0.259-0.414 0.39-0.699 0.39h-0.663v0.582h6.145v-0.582h-0.66c-0.259 0-0.507-0.131-0.74-0.39-0.234-0.285-0.35-0.647-0.35-1.088v-6.572c0-1.089-0.338-2.037-1.012-2.84-0.622-0.856-1.438-1.283-2.449-1.283-0.933 0-1.828 0.195-2.684 0.584-0.829 0.363-1.452 0.803-1.867 1.322-0.259-0.493-0.687-0.92-1.283-1.283-0.57-0.415-1.204-0.623-1.904-0.623-0.622 0-1.285 0.182-1.985 0.545-0.674 0.285-1.244 0.622-1.711 1.011zm24.084 0-4.394 1.362v0.584h0.973c0.181 0 0.361 0.103 0.543 0.31 0.181 0.285 0.273 0.584 0.273 0.895v7.584c0 0.441-0.129 0.802-0.389 1.088-0.207 0.259-0.442 0.39-0.701 0.39h-0.699v0.582h6.183v-0.582h-0.701c-0.259 0-0.505-0.131-0.738-0.39-0.233-0.285-0.35-0.647-0.35-1.088v-7.428c0.467-0.544 0.934-0.959 1.401-1.244 0.466-0.311 0.868-0.467 1.205-0.467 0.493 0 0.907 0.182 1.244 0.545 0.415 0.441 0.623 0.959 0.623 1.555v7.039c0 0.441-0.105 0.803-0.312 1.088-0.156 0.259-0.336 0.39-0.543 0.39h-0.702v0.583h5.952v-0.583h-0.741c-0.259 0-0.491-0.131-0.699-0.39-0.233-0.285-0.349-0.647-0.349-1.088v-7.039c0-0.985-0.312-1.828-0.934-2.528-0.648-0.751-1.44-1.128-2.373-1.128-0.752 0-1.491 0.195-2.217 0.584-0.726 0.362-1.243 0.738-1.555 1.127zm55.5 0-4.589 1.362-0.194 0.584h1.088c0.285 0 0.544 0.103 0.777 0.31 0.208 0.26 0.313 0.558 0.313 0.895v7.584c0 0.441-0.143 0.802-0.428 1.088-0.285 0.259-0.596 0.39-0.933 0.39h-0.623v0.582h6.884v-0.582h-0.662c-0.415 0-0.79-0.131-1.127-0.39-0.337-0.285-0.506-0.647-0.506-1.088v-7.195c0.312-0.493 0.623-0.894 0.934-1.206 0.285-0.259 0.518-0.388 0.699-0.388 0.104 0 0.233 0.039 0.389 0.117 0.181 0.052 0.337 0.129 0.467 0.232 0.155 0.156 0.311 0.261 0.467 0.313 0.181 0.078 0.363 0.115 0.544 0.115 0.363 0 0.688-0.142 0.973-0.428 0.233-0.285 0.35-0.57 0.35-0.855 0-0.363-0.143-0.674-0.428-0.934-0.363-0.311-0.791-0.467-1.283-0.467-0.648 0-1.297 0.222-1.946 0.663-0.57 0.414-0.958 0.79-1.166 1.127zm-93.594 0.04c-1.529 0-2.827 0.635-3.89 1.906-1.063 1.296-1.594 2.787-1.594 4.472 0 1.815 0.531 3.37 1.594 4.666 1.063 1.323 2.348 1.985 3.851 1.985 1.478 0 2.8-0.428 3.967-1.283 1.115-0.856 1.852-1.946 2.215-3.268l-0.66-0.467c-0.571 0.985-1.231 1.711-1.983 2.178-0.7 0.467-1.439 0.699-2.216 0.699-1.193 0-2.217-0.465-3.073-1.398-0.881-0.986-1.322-2.152-1.322-3.5h8.594c0-1.686-0.518-3.087-1.555-4.202-1.063-1.192-2.372-1.789-3.928-1.789zm55.994 0c-1.529 0-2.825 0.635-3.888 1.906-1.063 1.296-1.596 2.787-1.596 4.472 0 1.815 0.533 3.37 1.596 4.666 1.063 1.323 2.346 1.985 3.849 1.985 1.478 0 2.8-0.428 3.967-1.283 1.115-0.856 1.854-1.946 2.217-3.268l-0.662-0.467c-0.571 0.985-1.231 1.711-1.983 2.178-0.7 0.467-1.439 0.699-2.216 0.699-1.193 0-2.217-0.465-3.073-1.398-0.881-0.986-1.322-2.152-1.322-3.5h8.594c0-1.686-0.518-3.087-1.555-4.202-1.063-1.192-2.372-1.789-3.928-1.789zm13.855 0c-1.063 0-1.957 0.377-2.683 1.128-0.7 0.649-1.051 1.438-1.051 2.372 0 0.803 0.325 1.542 0.973 2.216 0.674 0.778 1.555 1.375 2.644 1.789 0.83 0.26 1.479 0.637 1.945 1.129 0.493 0.519 0.739 1.037 0.739 1.555 0 0.57-0.195 1.037-0.584 1.4-0.441 0.389-0.946 0.584-1.516 0.584-0.726 0-1.414-0.364-2.062-1.089-0.648-0.674-1.063-1.595-1.244-2.762h-0.895l0.234 4.434h0.856l0.389-0.467c0.233 0.207 0.608 0.376 1.127 0.506 0.492 0.155 1.025 0.234 1.595 0.234 1.245 0 2.319-0.403 3.227-1.207 0.829-0.726 1.244-1.608 1.244-2.645 0-0.751-0.285-1.451-0.856-2.099-0.622-0.674-1.451-1.218-2.488-1.633-0.907-0.285-1.646-0.713-2.217-1.283-0.544-0.596-0.816-1.193-0.816-1.789 0-0.415 0.169-0.779 0.506-1.09 0.311-0.233 0.699-0.35 1.166-0.35 0.57 0 1.127 0.272 1.672 0.817 0.57 0.596 1.05 1.401 1.439 2.412h0.856l-0.233-3.889h-0.855c-0.052 0.13-0.105 0.207-0.157 0.233-0.051 0.025-0.117 0.039-0.195 0.039-0.233 0-0.556-0.09-0.971-0.272-0.544-0.181-1.14-0.273-1.789-0.273zm36.744 0c-1.166 0-2.164 0.311-2.994 0.933-0.829 0.519-1.246 1.168-1.246 1.945 0 0.337 0.118 0.636 0.352 0.895 0.285 0.259 0.621 0.389 1.01 0.389 0.414 0 0.752-0.104 1.011-0.311 0.234-0.207 0.35-0.455 0.35-0.74 0-0.078-0.026-0.247-0.078-0.506l-0.115-0.738c0-0.311 0.168-0.57 0.505-0.778 0.337-0.181 0.739-0.271 1.205-0.271 0.571 0 1.049 0.154 1.438 0.465 0.441 0.363 0.662 0.803 0.662 1.322v1.867c-2.022 0.571-3.706 1.336-5.055 2.295-1.348 1.037-2.023 2.101-2.023 3.19 0 0.829 0.272 1.542 0.816 2.138 0.571 0.623 1.233 0.934 1.985 0.934 1.089 0 2.047-0.156 2.877-0.467 0.804-0.337 1.284-0.622 1.439-0.855 0 0.181 0.182 0.427 0.545 0.738 0.389 0.389 0.843 0.584 1.362 0.584 0.674 0 1.257-0.182 1.75-0.545 0.518-0.363 0.88-0.83 1.087-1.4l-0.66-0.233c-0.155 0.208-0.274 0.35-0.351 0.428-0.13 0.078-0.233 0.115-0.311 0.115-0.207 0-0.402-0.077-0.584-0.232-0.155-0.182-0.232-0.416-0.232-0.701v-6.573c0-1.244-0.402-2.189-1.205-2.838-0.804-0.7-1.984-1.05-3.539-1.05zm-139.28 0.273v0.66c0.3889 0 0.7134 0.105 0.9727 0.313 0.3111 0.285 0.5699 0.66 0.7773 1.127l4.5486 10.111-0.971 2.527c-0.181 0.441-0.402 0.792-0.662 1.051-0.2589 0.285-0.4914 0.428-0.6988 0.428-0.0259 0-0.1311-0.04-0.3125-0.118l-0.3496-0.156c-0.4667-0.181-0.9206-0.271-1.3613-0.271-0.4149 0-0.7637 0.155-1.0488 0.466-0.2334 0.337-0.3497 0.699-0.3497 1.088 0 0.337 0.2063 0.649 0.6211 0.934 0.3889 0.259 0.8429 0.389 1.3613 0.389 0.9074 0 1.7364-0.362 2.4883-1.088 0.7-0.674 1.246-1.595 1.635-2.762l4.937-12.6c0.156-0.467 0.39-0.831 0.702-1.09 0.233-0.233 0.557-0.349 0.972-0.349v-0.661h-4.162v0.661h0.662c0.156 0 0.285 0.039 0.389 0.117 0.129 0.052 0.193 0.168 0.193 0.349 0 0.363-0.039 0.701-0.117 1.012l-2.643 7.078-3.1891-7.117c-0.0778-0.182-0.1172-0.39-0.1172-0.623s0.0657-0.453 0.1954-0.66c0.1037-0.104 0.2199-0.156 0.3499-0.156h1.088v-0.661zm32.533 0.66c0.649 0 1.245 0.377 1.789 1.129 0.597 0.804 0.998 1.815 1.206 3.033h-5.911c0.312-1.348 0.713-2.359 1.205-3.033 0.519-0.752 1.089-1.129 1.711-1.129zm55.994 0c0.649 0 1.245 0.377 1.789 1.129 0.597 0.804 0.998 1.815 1.206 3.033h-5.911c0.312-1.348 0.713-2.359 1.205-3.033 0.519-0.752 1.089-1.129 1.711-1.129zm357.61 0.297c-1.529 0-2.865 0.934-4.006 2.801-1.063 1.815-1.595 4.03-1.595 6.648 0 2.541 0.533 4.719 1.595 6.533 1.141 1.789 2.477 2.684 4.006 2.684 0.441 0 0.739-0.077 0.895-0.232 0.13-0.13 0.193-0.286 0.193-0.467 0-0.104-0.039-0.183-0.117-0.235-0.078-0.129-0.168-0.193-0.271-0.193-1.037 0-1.919-0.778-2.645-2.334-0.752-1.581-1.127-3.5-1.127-5.756 0-2.229 0.349-4.109 1.049-5.639 0.726-1.581 1.581-2.371 2.566-2.371 0.156 0 0.261-0.039 0.313-0.117 0.078-0.104 0.115-0.272 0.115-0.506 0-0.311-0.103-0.53-0.31-0.66-0.156-0.104-0.375-0.156-0.661-0.156zm209.58 0c-0.311 0-0.53 0.052-0.66 0.156-0.233 0.13-0.351 0.349-0.351 0.66 0 0.234 0.039 0.403 0.117 0.506 0.078 0.078 0.181 0.117 0.31 0.117 1.012 0 1.867 0.79 2.567 2.372 0.726 1.529 1.09 3.409 1.09 5.638 0 2.256-0.375 4.175-1.127 5.756-0.726 1.556-1.608 2.334-2.645 2.334-0.13 0-0.235 0.064-0.312 0.194-0.052 0.051-0.078 0.13-0.078 0.234 0 0.181 0.052 0.337 0.156 0.467 0.181 0.155 0.493 0.232 0.933 0.232 1.53 0 2.852-0.895 3.967-2.684 1.089-1.814 1.633-3.992 1.633-6.533 0-2.618-0.544-4.833-1.633-6.648-1.115-1.867-2.437-2.801-3.967-2.801zm-129.41 0.195c-0.285 0.752-0.724 1.452-1.32 2.1s-1.335 1.231-2.217 1.75v0.816h1.787v8.75c0 0.752 0.235 1.412 0.702 1.983 0.44 0.57 0.958 0.855 1.554 0.855 0.856 0 1.595-0.156 2.217-0.467 0.622-0.337 1.089-0.789 1.4-1.359l-0.584-0.391c-0.207 0.286-0.426 0.467-0.66 0.545-0.181 0.13-0.403 0.196-0.662 0.196-0.363 0-0.672-0.13-0.931-0.389-0.286-0.363-0.428-0.766-0.428-1.207v-8.672h2.799v-1.01h-2.799v-3.5zm94.996 0c-0.285 0.752-0.726 1.452-1.322 2.1s-1.335 1.231-2.217 1.75v0.816h1.789v8.75c0 0.752 0.233 1.412 0.7 1.983 0.44 0.57 0.958 0.855 1.554 0.855 0.856 0 1.595-0.156 2.217-0.467 0.622-0.337 1.089-0.789 1.401-1.359l-0.584-0.391c-0.208 0.286-0.427 0.467-0.661 0.545-0.181 0.13-0.401 0.196-0.66 0.196-0.363 0-0.674-0.13-0.933-0.389-0.286-0.363-0.428-0.766-0.428-1.207v-8.672h2.799v-1.01h-2.799v-3.5zm-677.24 0.791v1.596h10.266v-1.596zm397.87 0.297-4.394 1.361v0.584h0.973c0.181 0 0.363 0.104 0.544 0.311 0.182 0.285 0.272 0.583 0.272 0.895v7.582c0 0.44-0.129 0.804-0.389 1.089-0.207 0.26-0.44 0.389-0.699 0.389h-0.701v0.584h6.183v-0.584h-0.699c-0.259 0-0.505-0.129-0.738-0.389-0.233-0.285-0.352-0.649-0.352-1.089v-7.428c0.467-0.545 0.934-0.959 1.401-1.244 0.467-0.311 0.868-0.467 1.205-0.467 0.493 0 0.909 0.182 1.246 0.545 0.415 0.441 0.621 0.96 0.621 1.557v7.037c0 0.44-0.103 0.804-0.31 1.089-0.156 0.26-0.338 0.389-0.545 0.389h-0.7v0.584h5.95v-0.584h-0.739c-0.259 0-0.493-0.129-0.701-0.389-0.233-0.285-0.349-0.649-0.349-1.089v-7.037c0-0.986-0.312-1.83-0.934-2.53-0.648-0.752-1.438-1.127-2.371-1.127-0.752 0-1.491 0.195-2.217 0.584-0.726 0.363-1.245 0.738-1.557 1.127zm-38.648 0.039c-1.529 0-2.825 0.636-3.888 1.906-1.063 1.297-1.596 2.786-1.596 4.471 0 1.815 0.533 3.372 1.596 4.668 1.063 1.322 2.346 1.983 3.849 1.983 1.478 0 2.8-0.428 3.967-1.284 1.115-0.855 1.854-1.943 2.217-3.265l-0.662-0.467c-0.571 0.985-1.231 1.711-1.983 2.178-0.7 0.466-1.439 0.699-2.216 0.699-1.193 0-2.217-0.467-3.073-1.4-0.881-0.986-1.322-2.152-1.322-3.5h8.594c0-1.686-0.518-3.085-1.555-4.2-1.063-1.192-2.372-1.789-3.928-1.789zm24.793 0c-1.529 0-2.825 0.636-3.888 1.906-1.063 1.297-1.594 2.786-1.594 4.471 0 1.815 0.531 3.372 1.594 4.668 1.063 1.322 2.346 1.983 3.849 1.983 1.478 0 2.8-0.428 3.967-1.284 1.115-0.855 1.854-1.943 2.217-3.265l-0.66-0.467c-0.571 0.985-1.233 1.711-1.985 2.178-0.7 0.466-1.439 0.699-2.216 0.699-1.193 0-2.217-0.467-3.073-1.4-0.881-0.986-1.322-2.152-1.322-3.5h8.596c0-1.686-0.52-3.085-1.557-4.2-1.063-1.192-2.372-1.789-3.928-1.789zm-24.949 0.934c0.649 0 1.245 0.375 1.789 1.127 0.597 0.804 0.998 1.815 1.206 3.033h-5.911c0.312-1.348 0.713-2.359 1.205-3.033 0.519-0.752 1.089-1.127 1.711-1.127zm24.795 0c0.649 0 1.245 0.375 1.789 1.127 0.597 0.804 0.998 1.815 1.206 3.033h-5.913c0.312-1.348 0.715-2.359 1.207-3.033 0.519-0.752 1.089-1.127 1.711-1.127zm225.47 1.127-4.666 1.361v0.584h1.205c0.208 0 0.39 0.077 0.545 0.233 0.182 0.207 0.272 0.455 0.272 0.74v7.816c0 0.441-0.143 0.803-0.428 1.088-0.259 0.259-0.557 0.389-0.894 0.389h-0.7v0.584h6.416v-0.584h-0.662c-0.259 0-0.505-0.13-0.738-0.389-0.233-0.285-0.35-0.647-0.35-1.088v-7.623c0.312-0.44 0.739-0.816 1.284-1.127 0.492-0.259 1.036-0.388 1.632-0.388 0.467 0 0.857 0.166 1.168 0.504 0.389 0.337 0.582 0.777 0.582 1.322v7.312c0 0.441-0.116 0.803-0.349 1.088-0.208 0.259-0.453 0.389-0.738 0.389h-0.623v0.584h6.378v-0.584h-0.701c-0.337 0-0.635-0.13-0.894-0.389-0.26-0.285-0.389-0.647-0.389-1.088v-7.427c0.337-0.545 0.778-0.959 1.322-1.244 0.467-0.312 0.96-0.467 1.479-0.467 0.57 0 1.062 0.206 1.476 0.621 0.415 0.492 0.623 1.063 0.623 1.711v6.806c0 0.441-0.129 0.803-0.388 1.088-0.182 0.259-0.416 0.389-0.701 0.389h-0.661v0.584h6.145v-0.584h-0.662c-0.259 0-0.505-0.13-0.738-0.389-0.234-0.285-0.35-0.647-0.35-1.088v-6.572c0-1.089-0.338-2.036-1.012-2.84-0.622-0.855-1.438-1.283-2.449-1.283-0.933 0-1.828 0.195-2.684 0.584-0.829 0.363-1.452 0.804-1.867 1.322-0.259-0.492-0.687-0.92-1.283-1.283-0.57-0.415-1.204-0.623-1.904-0.623-0.622 0-1.285 0.182-1.985 0.545-0.674 0.285-1.244 0.623-1.711 1.012zm24.084 0-4.394 1.361v0.584h0.971c0.181 0 0.363 0.103 0.545 0.311 0.181 0.285 0.273 0.583 0.273 0.894v7.584c0 0.441-0.131 0.803-0.391 1.088-0.207 0.259-0.44 0.389-0.699 0.389h-0.699v0.584h6.183v-0.584h-0.701c-0.259 0-0.505-0.13-0.738-0.389-0.233-0.285-0.35-0.647-0.35-1.088v-7.427c0.467-0.545 0.932-0.959 1.399-1.245 0.466-0.311 0.87-0.466 1.207-0.466 0.492 0 0.907 0.18 1.244 0.543 0.415 0.44 0.621 0.96 0.621 1.556v7.039c0 0.441-0.103 0.803-0.311 1.088-0.155 0.26-0.337 0.389-0.544 0.389h-0.7v0.584h5.95v-0.584h-0.739c-0.259 0-0.492-0.129-0.699-0.389-0.233-0.285-0.352-0.647-0.352-1.088v-7.039c0-0.985-0.309-1.827-0.931-2.527-0.648-0.752-1.44-1.129-2.373-1.129-0.752 0-1.491 0.195-2.217 0.584-0.726 0.363-1.244 0.738-1.555 1.127zm55.5 0-4.589 1.361-0.194 0.584h1.088c0.285 0 0.544 0.103 0.777 0.311 0.208 0.259 0.313 0.557 0.313 0.894v7.584c0 0.441-0.143 0.803-0.428 1.088-0.285 0.259-0.596 0.389-0.933 0.389h-0.623v0.584h6.882v-0.584h-0.66c-0.415 0-0.792-0.13-1.129-0.389-0.337-0.285-0.504-0.647-0.504-1.088v-7.195c0.312-0.493 0.621-0.894 0.932-1.205 0.285-0.259 0.52-0.389 0.701-0.389 0.104 0 0.233 0.04 0.389 0.117 0.181 0.052 0.337 0.129 0.467 0.233 0.155 0.155 0.311 0.259 0.467 0.31 0.181 0.078 0.363 0.118 0.544 0.118 0.363 0 0.686-0.143 0.971-0.428 0.233-0.285 0.352-0.57 0.352-0.856 0-0.363-0.143-0.674-0.428-0.933-0.363-0.311-0.793-0.467-1.285-0.467-0.648 0-1.295 0.221-1.944 0.662-0.57 0.415-0.958 0.79-1.166 1.127zm-93.596 0.039c-1.529 0-2.825 0.636-3.888 1.906-1.063 1.296-1.594 2.788-1.594 4.473 0 1.815 0.531 3.37 1.594 4.666 1.063 1.322 2.346 1.982 3.849 1.982 1.478 0 2.8-0.427 3.967-1.283 1.115-0.855 1.854-1.943 2.217-3.266l-0.66-0.466c-0.571 0.985-1.233 1.711-1.985 2.177-0.7 0.467-1.439 0.7-2.216 0.7-1.193 0-2.217-0.465-3.073-1.399-0.881-0.985-1.322-2.152-1.322-3.5h8.596c0-1.685-0.52-3.086-1.557-4.201-1.063-1.193-2.372-1.789-3.928-1.789zm55.994 0c-1.529 0-2.825 0.636-3.888 1.906-1.063 1.296-1.594 2.788-1.594 4.473 0 1.815 0.531 3.37 1.594 4.666 1.063 1.322 2.348 1.982 3.851 1.982 1.478 0 2.798-0.427 3.965-1.283 1.115-0.855 1.854-1.943 2.217-3.266l-0.66-0.466c-0.571 0.985-1.233 1.711-1.985 2.177-0.7 0.467-1.439 0.7-2.216 0.7-1.193 0-2.215-0.465-3.071-1.399-0.881-0.985-1.322-2.152-1.322-3.5h8.594c0-1.685-0.52-3.086-1.557-4.201-1.063-1.193-2.372-1.789-3.928-1.789zm13.855 0c-1.063 0-1.955 0.377-2.681 1.129-0.7 0.648-1.051 1.438-1.051 2.371 0 0.804 0.325 1.543 0.973 2.217 0.674 0.778 1.555 1.374 2.644 1.789 0.83 0.259 1.477 0.634 1.944 1.127 0.492 0.518 0.74 1.038 0.74 1.556 0 0.571-0.195 1.038-0.584 1.401-0.441 0.389-0.947 0.582-1.518 0.582-0.726 0-1.412-0.362-2.06-1.088-0.648-0.674-1.063-1.595-1.244-2.762h-0.895l0.232 4.434h0.858l0.389-0.467c0.233 0.208 0.608 0.376 1.127 0.506 0.492 0.156 1.023 0.232 1.593 0.232 1.245 0 2.321-0.401 3.229-1.205 0.83-0.726 1.244-1.607 1.244-2.644 0-0.752-0.285-1.452-0.855-2.1-0.623-0.674-1.452-1.218-2.489-1.633-0.907-0.285-1.646-0.712-2.217-1.283-0.544-0.596-0.816-1.193-0.816-1.789 0-0.415 0.169-0.779 0.506-1.09 0.311-0.233 0.699-0.349 1.166-0.349 0.57 0 1.127 0.272 1.672 0.816 0.57 0.596 1.05 1.401 1.439 2.412h0.856l-0.235-3.888h-0.855c-0.052 0.129-0.103 0.206-0.154 0.232-0.052 0.026-0.118 0.039-0.196 0.039-0.233 0-0.558-0.09-0.972-0.271-0.545-0.182-1.141-0.274-1.79-0.274zm36.746 0c-1.166 0-2.166 0.311-2.996 0.934-0.829 0.518-1.244 1.167-1.244 1.945 0 0.337 0.116 0.635 0.35 0.894 0.285 0.26 0.623 0.389 1.011 0.389 0.415 0 0.753-0.105 1.012-0.312 0.234-0.208 0.35-0.454 0.35-0.739 0-0.078-0.026-0.246-0.078-0.506l-0.117-0.738c0-0.311 0.168-0.57 0.505-0.777 0.337-0.182 0.741-0.274 1.207-0.274 0.571 0 1.049 0.156 1.438 0.467 0.441 0.363 0.662 0.804 0.662 1.322v1.868c-2.022 0.57-3.709 1.335-5.057 2.295-1.348 1.037-2.021 2.098-2.021 3.187 0 0.83 0.272 1.544 0.816 2.141 0.571 0.622 1.233 0.931 1.985 0.931 1.089 0 2.047-0.155 2.877-0.466 0.803-0.338 1.284-0.623 1.439-0.856 0 0.182 0.18 0.429 0.543 0.74 0.389 0.389 0.843 0.582 1.361 0.582 0.674 0 1.258-0.18 1.75-0.543 0.519-0.363 0.883-0.83 1.09-1.4l-0.662-0.234c-0.155 0.207-0.272 0.35-0.35 0.427-0.129 0.078-0.232 0.117-0.31 0.117-0.208 0-0.403-0.076-0.584-0.232-0.156-0.181-0.233-0.416-0.233-0.701v-6.572c0-1.245-0.403-2.19-1.207-2.838-0.803-0.7-1.981-1.051-3.537-1.051zm-396.24 0.117v1.594h10.266v-1.594zm256.96 0.156v0.661c0.389 0 0.712 0.103 0.971 0.31 0.311 0.285 0.572 0.662 0.779 1.129l4.549 10.111-0.972 2.527c-0.182 0.441-0.401 0.79-0.661 1.049-0.259 0.285-0.491 0.43-0.699 0.43-0.026 0-0.131-0.04-0.312-0.117l-0.35-0.157c-0.467-0.181-0.921-0.271-1.361-0.271-0.415 0-0.764 0.156-1.049 0.467-0.233 0.337-0.352 0.699-0.352 1.088 0 0.337 0.209 0.648 0.623 0.933 0.389 0.259 0.843 0.389 1.362 0.389 0.907 0 1.736-0.362 2.488-1.088 0.7-0.674 1.244-1.595 1.633-2.762l4.939-12.6c0.156-0.466 0.39-0.83 0.701-1.09 0.234-0.233 0.556-0.349 0.971-0.349v-0.66h-4.16v0.66h0.66c0.156 0 0.285 0.039 0.389 0.117 0.129 0.052 0.195 0.168 0.195 0.35 0 0.363-0.039 0.7-0.117 1.011l-2.645 7.078-3.187-7.117c-0.078-0.181-0.117-0.389-0.117-0.623 0-0.233 0.063-0.453 0.193-0.66 0.104-0.104 0.222-0.156 0.352-0.156h1.088v-0.66zm-365.32 0.481v4.551c-0.388 0.44-0.752 0.763-1.089 0.97-0.389 0.26-0.778 0.391-1.166 0.391-0.467 0-0.908-0.208-1.323-0.623s-0.621-0.921-0.621-1.518c0-0.777 0.428-1.516 1.283-2.216 0.804-0.7 1.776-1.218 2.916-1.555zm397.85 0.18c0.649 0 1.245 0.375 1.789 1.127 0.597 0.803 0.998 1.816 1.206 3.035h-5.913c0.312-1.348 0.715-2.361 1.207-3.035 0.519-0.752 1.089-1.127 1.711-1.127zm55.994 0c0.649 0 1.245 0.375 1.789 1.127 0.597 0.803 0.998 1.816 1.206 3.035h-5.913c0.312-1.348 0.715-2.361 1.207-3.035 0.519-0.752 1.089-1.127 1.711-1.127zm-144.46 1.283v1.594h10.266v-1.594zm-506.7 0.754v1.554h10.266v-1.554zm704.01 2.435v4.549c-0.388 0.441-0.752 0.765-1.089 0.973-0.389 0.259-0.778 0.388-1.166 0.388-0.467 0-0.908-0.206-1.323-0.621s-0.623-0.921-0.623-1.517c0-0.778 0.428-1.517 1.283-2.217 0.804-0.7 1.778-1.218 2.918-1.555zm-398.34 0.116v1.556h10.266v-1.556zm201.03 2.101v1.555h10.266v-1.555zm-514.27 73.307-4.3945 1.129v0.584h0.7012c0.2592 0 0.5049 0.103 0.7382 0.311 0.2334 0.259 0.3497 0.557 0.3497 0.894v13.65c0 0.467-0.1295 0.895-0.3887 1.283-0.2074 0.286-0.44 0.428-0.6992 0.428h-0.7012v0.582h6.1836v-0.582h-0.6992c-0.2593 0-0.505-0.129-0.7383-0.389-0.2333-0.285-0.3516-0.649-0.3516-1.089v-7.194c0.4149-0.57 0.8688-1.024 1.3613-1.361 0.4926-0.285 0.9991-0.428 1.5176-0.428 0.4667 0 0.8812 0.156 1.2441 0.467 0.3889 0.415 0.584 0.906 0.584 1.477v7.039c0 0.44-0.0919 0.804-0.2734 1.089-0.1556 0.26-0.3487 0.389-0.5821 0.389h-0.623v0.582h5.873v-0.582h-0.6621c-0.2852 0-0.5309-0.129-0.7383-0.389-0.2592-0.285-0.3887-0.649-0.3887-1.089v-7.039c0-0.986-0.3507-1.841-1.0508-2.567-0.7259-0.726-1.6075-1.088-2.6445-1.088-0.8037 0-1.5559 0.207-2.2559 0.621-0.7259 0.441-1.1798 0.829-1.3613 1.166zm15.373 0.078c-0.4667 0-0.8306 0.13-1.0898 0.389-0.2852 0.285-0.4277 0.596-0.4277 0.933 0 0.415 0.1313 0.779 0.3906 1.09 0.2852 0.363 0.6077 0.545 0.9707 0.545 0.5444 0 0.9589-0.182 1.2441-0.545 0.2333-0.311 0.3516-0.675 0.3516-1.09 0-0.337-0.1183-0.635-0.3516-0.894-0.2852-0.285-0.6472-0.428-1.0879-0.428zm56.395 0c-0.466 0-0.83 0.13-1.089 0.389-0.286 0.285-0.428 0.596-0.428 0.933 0 0.415 0.129 0.779 0.389 1.09 0.285 0.363 0.609 0.545 0.972 0.545 0.545 0 0.959-0.182 1.244-0.545 0.234-0.311 0.352-0.675 0.352-1.09 0-0.337-0.118-0.635-0.352-0.894-0.285-0.285-0.647-0.428-1.088-0.428zm-103.64 0.506v0.623h0.69922c0.46666 0 0.89431 0.156 1.2832 0.467 0.36296 0.337 0.54492 0.751 0.54492 1.244v13.883c0 0.441-0.18196 0.805-0.54492 1.09-0.36296 0.259-0.79061 0.389-1.2832 0.389h-0.69922v0.582h8.166v-0.582h-0.66015c-0.4926 0-0.92024-0.13-1.2832-0.389-0.36296-0.285-0.54492-0.649-0.54492-1.09v-13.883c0-0.493 0.18196-0.907 0.54492-1.244 0.36297-0.311 0.79061-0.467 1.2832-0.467h0.66015v-0.623zm207.61 0.811-4.668 1.127v0.584h1.207c0.208 0 0.377 0.103 0.506 0.31 0.208 0.259 0.311 0.558 0.311 0.895v13.883c0 0.44-0.143 0.804-0.428 1.089-0.259 0.26-0.557 0.389-0.894 0.389h-0.702v0.582h6.651v-0.582h-0.699c-0.286 0-0.571-0.129-0.856-0.389-0.285-0.285-0.428-0.649-0.428-1.09zm-23.889 0.582v0.623h0.7c0.466 0 0.881 0.182 1.244 0.545 0.389 0.414 0.584 0.893 0.584 1.437v12.873c0 0.622-0.182 1.14-0.545 1.555-0.389 0.44-0.817 0.662-1.283 0.662h-0.7v0.582h15.244l1.166-4.356-0.816-0.193c-0.389 1.089-0.999 1.944-1.828 2.566-0.752 0.597-1.581 0.895-2.488 0.895h-4.163c-0.388 0-0.724-0.13-1.009-0.389-0.286-0.311-0.428-0.675-0.428-1.09v-6.494h4.588c0.622 0 1.166 0.246 1.633 0.738 0.466 0.545 0.701 1.22 0.701 2.024h0.894v-6.455h-0.894c0 0.752-0.222 1.359-0.662 1.826-0.493 0.467-1.05 0.701-1.672 0.701h-4.588v-5.834c0-0.311 0.09-0.57 0.271-0.777 0.156-0.208 0.338-0.311 0.545-0.311h5.055c0.57 0 1.064 0.246 1.478 0.739 0.493 0.518 0.818 1.191 0.973 2.021h0.971v-3.889zm162.12 0.615c-2.826 0-5.095 0.881-6.806 2.644-1.659 1.66-2.489 3.916-2.489 6.768v0.506c0 2.826 0.83 5.093 2.489 6.804 1.711 1.712 3.915 2.567 6.611 2.567 2.93 0 5.237-0.855 6.922-2.567 1.685-1.711 2.527-3.978 2.527-6.804v-0.506c0-2.852-0.842-5.108-2.527-6.768-1.685-1.763-3.927-2.644-6.727-2.644zm0 1.129c1.737 0 3.137 0.739 4.2 2.217 1.114 1.503 1.671 3.525 1.671 6.066v0.506c0 2.515-0.557 4.537-1.671 6.066-1.063 1.478-2.528 2.217-4.395 2.217-1.607 0-2.93-0.739-3.967-2.217-1.089-1.529-1.633-3.551-1.633-6.066v-0.506c0-2.541 0.544-4.563 1.633-6.066 1.037-1.478 2.425-2.217 4.162-2.217zm-99.658 0.551c-0.285 0.751-0.726 1.451-1.322 2.099s-1.335 1.232-2.217 1.75v0.817h1.789v8.75c0 0.751 0.233 1.414 0.7 1.984 0.44 0.57 0.96 0.855 1.556 0.855 0.856 0 1.593-0.155 2.215-0.466 0.622-0.337 1.089-0.791 1.4-1.362l-0.582-0.388c-0.207 0.285-0.428 0.467-0.662 0.545-0.181 0.129-0.401 0.193-0.66 0.193-0.363 0-0.674-0.13-0.933-0.389-0.286-0.363-0.428-0.764-0.428-1.205v-8.672h2.799v-1.011h-2.799v-3.5zm156.67 1.121c-0.285 0.751-0.726 1.451-1.322 2.099s-1.335 1.232-2.217 1.75v0.817h1.789v8.75c0 0.751 0.233 1.414 0.7 1.984 0.44 0.57 0.96 0.855 1.556 0.855 0.856 0 1.595-0.155 2.217-0.466 0.622-0.337 1.089-0.791 1.4-1.362l-0.584-0.388c-0.207 0.285-0.426 0.465-0.66 0.543-0.181 0.129-0.403 0.195-0.662 0.195-0.363 0-0.674-0.129-0.933-0.389-0.286-0.363-0.428-0.764-0.428-1.205v-8.674h2.801v-1.009h-2.801v-3.5zm-354.25 0.636-4.666 1.594v0.389h1.4375c0.1556 0 0.2981 0.079 0.4277 0.234 0.1037 0.104 0.1563 0.26 0.1563 0.467v8.088c0 0.441-0.1426 0.804-0.4278 1.09-0.2592 0.259-0.5574 0.388-0.8945 0.388h-0.6992v0.582h6.416v-0.582h-0.6621c-0.2593 0-0.505-0.129-0.7383-0.388-0.2333-0.286-0.3496-0.649-0.3496-1.09zm56.395 0-4.668 1.594v0.389h1.44c0.155 0 0.298 0.079 0.428 0.234 0.103 0.104 0.156 0.26 0.156 0.467v8.088c0 0.441-0.143 0.804-0.428 1.09-0.259 0.259-0.557 0.388-0.894 0.388h-0.702v0.582h6.418v-0.582h-0.662c-0.259 0-0.505-0.129-0.738-0.388-0.233-0.286-0.35-0.649-0.35-1.09zm-89.59 0.039-4.666 1.36 0.1953 0.584h1.0098c0.2333 0 0.4153 0.103 0.5449 0.31 0.2074 0.285 0.3106 0.584 0.3106 0.895v13.379c0 0.518-0.1426 0.959-0.4278 1.322-0.2851 0.259-0.5965 0.389-0.9336 0.389h-0.6992v0.621h6.9219v-0.621h-0.6601c-0.4148 0-0.7919-0.143-1.1289-0.428-0.3111-0.337-0.4668-0.765-0.4668-1.283v-4.045c0.0519 0.052 0.3501 0.168 0.8945 0.35 0.5445 0.155 1.1935 0.234 1.9453 0.234 1.6074 0 2.956-0.726 4.0449-2.178 1.037-1.478 1.5547-3.201 1.5547-5.172 0-1.529-0.4276-2.839-1.2832-3.927-0.8815-1.167-1.9825-1.75-3.3047-1.75-0.9592 0-1.8034 0.18-2.5293 0.543-0.7778 0.362-1.2186 0.648-1.3223 0.855zm73.129 0-4.3945 1.36v0.584h0.9727c0.1814 0 0.3614 0.103 0.5429 0.31 0.1815 0.285 0.2735 0.584 0.2735 0.895v7.584c0 0.441-0.1295 0.804-0.3887 1.09-0.2074 0.259-0.4419 0.388-0.7012 0.388h-0.6992v0.582h6.1836v-0.582h-0.7012c-0.2592 0-0.5049-0.129-0.7383-0.388-0.2333-0.286-0.3496-0.649-0.3496-1.09v-7.428c0.4667-0.544 0.9318-0.959 1.3984-1.244 0.4667-0.311 0.87-0.467 1.207-0.467 0.4926 0 0.9071 0.182 1.2441 0.545 0.4148 0.441 0.6211 0.958 0.6211 1.555v7.039c0 0.441-0.1031 0.804-0.3105 1.09-0.1556 0.259-0.3375 0.388-0.5449 0.388h-0.6993v0.582h5.9492v-0.582h-0.7382c-0.2593 0-0.4918-0.129-0.6993-0.388-0.2333-0.286-0.3496-0.649-0.3496-1.09v-7.039c0-0.985-0.3113-1.828-0.9336-2.528-0.6481-0.751-1.4397-1.127-2.373-1.127-0.7518 0-1.4909 0.194-2.2168 0.582-0.7259 0.363-1.2436 0.741-1.5547 1.129zm-29.422 0.039c-1.2963 0-2.4124 0.428-3.3457 1.284-0.9074 0.803-1.3613 1.749-1.3613 2.837 0 0.96 0.2345 1.802 0.7012 2.528 0.4666 0.778 1.0743 1.284 1.8262 1.517-0.726 0.519-1.3093 1.05-1.75 1.594-0.4408 0.519-0.6602 0.999-0.6602 1.44 0 0.337 0.1426 0.635 0.4278 0.894 0.2333 0.285 0.5447 0.505 0.9335 0.66-0.8037 0.467-1.4659 1-1.9844 1.596-0.4925 0.57-0.7382 1.127-0.7382 1.672 0 0.752 0.4933 1.412 1.4785 1.982 0.9592 0.545 2.0734 0.817 3.3438 0.817 2.3593 0 4.2387-0.439 5.6387-1.321 1.3482-0.881 2.0234-2.048 2.0234-3.5 0-0.907-0.5065-1.635-1.5176-2.179-1.0111-0.467-2.5023-0.7-4.4727-0.7-0.8815 0-1.6336-0.09-2.2559-0.271-0.5704-0.156-0.8555-0.377-0.8555-0.662 0-0.233 0.3508-0.701 1.0508-1.401l0.3105-0.31c0.2852 0.104 0.8686 0.156 1.75 0.156 1.2444 0 2.3211-0.427 3.2285-1.283 0.8297-0.83 1.2441-1.828 1.2441-2.994 0-0.596-0.0657-1.116-0.1953-1.557-0.0778-0.466-0.2203-0.791-0.4277-0.972h2.1406v-1.049h-2.8789c-0.8556-0.519-2.0728-0.778-3.6543-0.778zm15.566 0c-1.5296 0-2.8257 0.634-3.8887 1.905-1.063 1.296-1.5957 2.787-1.5957 4.472 0 1.815 0.5327 3.37 1.5957 4.666 1.063 1.323 2.3459 1.985 3.8496 1.985 1.4778 0 2.8001-0.428 3.9668-1.283 1.1148-0.856 1.8538-1.946 2.2168-3.268l-0.6621-0.467c-0.5704 0.985-1.2306 1.711-1.9824 2.178-0.7 0.467-1.439 0.701-2.2168 0.701-1.1926 0-2.2167-0.467-3.0723-1.4-0.8815-0.986-1.3223-2.152-1.3223-3.5h8.5938c0-1.686-0.5177-3.087-1.5547-4.202-1.063-1.192-2.3722-1.787-3.9277-1.787zm40.477 0c-1.166 0-2.164 0.31-2.994 0.932-0.829 0.519-1.244 1.168-1.244 1.945 0 0.337 0.116 0.636 0.35 0.895 0.285 0.259 0.623 0.389 1.012 0.389 0.414 0 0.752-0.104 1.011-0.311 0.234-0.207 0.35-0.455 0.35-0.74 0-0.078-0.026-0.245-0.078-0.504l-0.117-0.74c0-0.312 0.168-0.57 0.505-0.778 0.337-0.181 0.739-0.271 1.205-0.271 0.571 0 1.051 0.155 1.44 0.467 0.441 0.363 0.66 0.803 0.66 1.322v1.865c-2.022 0.57-3.706 1.336-5.055 2.295-1.348 1.037-2.021 2.101-2.021 3.189 0 0.83 0.272 1.543 0.816 2.139 0.571 0.622 1.231 0.934 1.983 0.934 1.089 0 2.049-0.156 2.879-0.467 0.803-0.337 1.282-0.622 1.437-0.856 0 0.182 0.182 0.428 0.545 0.739 0.389 0.389 0.843 0.584 1.361 0.584 0.674 0 1.258-0.182 1.75-0.545 0.519-0.363 0.883-0.83 1.09-1.401l-0.662-0.232c-0.155 0.207-0.272 0.35-0.35 0.428-0.129 0.078-0.232 0.115-0.31 0.115-0.207 0-0.403-0.077-0.584-0.232-0.156-0.182-0.234-0.415-0.234-0.7v-6.572c0-1.244-0.402-2.192-1.206-2.84-0.803-0.7-1.983-1.049-3.539-1.049zm-40.633 0.932c0.6481 0 1.2446 0.377 1.7891 1.129 0.5963 0.804 0.9977 1.815 1.2051 3.033h-5.9102c0.3111-1.348 0.7125-2.359 1.2051-3.033 0.5185-0.752 1.0887-1.129 1.7109-1.129zm-15.605 0.156c0.7259 0 1.375 0.402 1.9453 1.205 0.5963 0.83 0.8926 1.867 0.8926 3.112 0 0.674-0.18 1.231-0.543 1.672-0.3889 0.414-0.8822 0.623-1.4785 0.623-0.6482 0-1.2446-0.389-1.7891-1.166-0.6222-0.856-0.9336-1.906-0.9336-3.151 0-0.648 0.2082-1.218 0.623-1.711 0.363-0.389 0.7907-0.584 1.2832-0.584zm198.93 0.266-4.589 1.361-0.194 0.582h1.088c0.285 0 0.544 0.105 0.777 0.313 0.208 0.259 0.313 0.557 0.313 0.894v7.582c0 0.441-0.143 0.805-0.428 1.09-0.285 0.259-0.596 0.389-0.933 0.389h-0.623v0.582h6.882v-0.582h-0.66c-0.415 0-0.79-0.13-1.127-0.389-0.337-0.285-0.506-0.649-0.506-1.09v-7.193c0.312-0.493 0.623-0.896 0.934-1.207 0.285-0.259 0.518-0.389 0.699-0.389 0.104 0 0.233 0.039 0.389 0.117 0.181 0.052 0.337 0.129 0.467 0.233 0.155 0.155 0.311 0.26 0.466 0.312 0.182 0.078 0.364 0.115 0.545 0.115 0.363 0 0.686-0.142 0.971-0.427 0.233-0.285 0.352-0.571 0.352-0.856 0-0.363-0.143-0.672-0.428-0.931-0.363-0.311-0.791-0.467-1.283-0.467-0.648 0-1.297 0.219-1.946 0.66-0.57 0.415-0.958 0.792-1.166 1.129zm-39.312 0.039c-1.529 0-2.825 0.634-3.888 1.904-1.063 1.296-1.594 2.788-1.594 4.473 0 1.815 0.531 3.37 1.594 4.666 1.063 1.322 2.348 1.984 3.851 1.984 1.478 0 2.798-0.427 3.965-1.283 1.115-0.856 1.854-1.945 2.217-3.268l-0.66-0.466c-0.571 0.985-1.233 1.711-1.985 2.177-0.7 0.467-1.437 0.702-2.214 0.702-1.193 0-2.217-0.468-3.073-1.401-0.881-0.985-1.322-2.152-1.322-3.5h8.594c0-1.685-0.52-3.084-1.557-4.199-1.063-1.193-2.372-1.789-3.928-1.789zm16.385 0c-1.814 0-3.358 0.673-4.629 2.021-1.244 1.297-1.865 2.838-1.865 4.627 0 1.737 0.544 3.228 1.633 4.473 1.193 1.27 2.541 1.906 4.045 1.906 1.322 0 2.463-0.401 3.422-1.205 0.933-0.778 1.556-1.777 1.867-2.996l-0.662-0.389c-0.493 0.804-1.076 1.414-1.75 1.828-0.726 0.415-1.504 0.624-2.334 0.624-1.037 0-1.919-0.52-2.645-1.557-0.803-1.089-1.205-2.398-1.205-3.928 0-1.27 0.364-2.332 1.09-3.187 0.752-0.856 1.581-1.286 2.488-1.286 0.415 0 0.777 0.145 1.088 0.43 0.363 0.311 0.585 0.713 0.662 1.205 0.052 0.389 0.221 0.701 0.506 0.934 0.311 0.311 0.673 0.467 1.088 0.467 0.363 0 0.675-0.156 0.934-0.467 0.233-0.259 0.349-0.558 0.349-0.895 0-0.7-0.401-1.296-1.205-1.789-0.777-0.544-1.736-0.816-2.877-0.816zm35.928 0c-1.166 0-2.164 0.309-2.994 0.931-0.829 0.519-1.246 1.168-1.246 1.946 0 0.337 0.118 0.635 0.352 0.894 0.285 0.26 0.621 0.389 1.01 0.389 0.414 0 0.752-0.103 1.011-0.311 0.234-0.207 0.35-0.453 0.35-0.738 0-0.078-0.026-0.246-0.078-0.506l-0.115-0.74c0-0.311 0.166-0.57 0.503-0.777 0.337-0.182 0.741-0.272 1.207-0.272 0.571 0 1.049 0.156 1.438 0.467 0.441 0.363 0.662 0.804 0.662 1.322v1.866c-2.022 0.57-3.708 1.335-5.057 2.294-1.348 1.037-2.021 2.101-2.021 3.19 0 0.83 0.272 1.542 0.816 2.139 0.571 0.622 1.233 0.933 1.985 0.933 1.089 0 2.047-0.156 2.877-0.467 0.803-0.337 1.284-0.622 1.439-0.855 0 0.181 0.182 0.427 0.545 0.738 0.389 0.389 0.841 0.584 1.359 0.584 0.675 0 1.258-0.182 1.75-0.545 0.519-0.363 0.883-0.83 1.09-1.4l-0.662-0.233c-0.155 0.208-0.272 0.35-0.349 0.428-0.13 0.078-0.233 0.117-0.311 0.117-0.207 0-0.402-0.079-0.584-0.234-0.156-0.181-0.232-0.414-0.232-0.699v-6.572c0-1.245-0.402-2.192-1.205-2.84-0.804-0.7-1.984-1.049-3.54-1.049zm-252.84 0.162c0.9074 0 1.6727 0.48 2.2949 1.439 0.7 0.986 1.0508 2.203 1.0508 3.655 0 1.555-0.3508 2.864-1.0508 3.927-0.6222 1.063-1.4512 1.596-2.4883 1.596-0.4926 0-0.9728-0.142-1.4394-0.428-0.4667-0.233-0.7912-0.571-0.9727-1.011v-7.467c0.2334-0.545 0.5973-0.959 1.0898-1.244 0.4926-0.311 0.9971-0.467 1.5156-0.467zm200.37 0.769c0.649 0 1.245 0.378 1.789 1.129 0.597 0.804 0.998 1.815 1.206 3.034h-5.913c0.312-1.349 0.715-2.36 1.207-3.034 0.519-0.751 1.089-1.129 1.711-1.129zm144.84 0.149-4.589 1.361-0.196 0.584h1.09c0.285 0 0.544 0.103 0.777 0.311 0.208 0.259 0.313 0.557 0.313 0.894v7.584c0 0.441-0.145 0.803-0.43 1.088-0.285 0.259-0.594 0.391-0.931 0.391h-0.623v0.582h6.882v-0.582h-0.66c-0.415 0-0.792-0.132-1.129-0.391-0.337-0.285-0.504-0.647-0.504-1.088v-7.195c0.312-0.493 0.621-0.894 0.932-1.205 0.285-0.259 0.52-0.389 0.701-0.389 0.104 0 0.233 0.039 0.389 0.117 0.181 0.052 0.337 0.129 0.467 0.233 0.155 0.155 0.311 0.26 0.466 0.312 0.182 0.078 0.364 0.115 0.545 0.115 0.363 0 0.686-0.142 0.971-0.427 0.233-0.285 0.352-0.571 0.352-0.856 0-0.363-0.143-0.674-0.428-0.933-0.363-0.311-0.793-0.467-1.285-0.467-0.648 0-1.295 0.221-1.944 0.662-0.57 0.415-0.958 0.79-1.166 1.127zm13.699 0.039c-1.529 0-2.825 0.636-3.888 1.906-1.063 1.297-1.596 2.788-1.596 4.473 0 1.815 0.533 3.37 1.596 4.666 1.063 1.322 2.346 1.984 3.849 1.984 1.478 0 2.8-0.427 3.967-1.283 1.115-0.855 1.854-1.945 2.217-3.268l-0.662-0.466c-0.571 0.985-1.231 1.711-1.983 2.177-0.7 0.467-1.439 0.702-2.216 0.702-1.193 0-2.217-0.467-3.073-1.401-0.881-0.985-1.322-2.152-1.322-3.5h8.594c0-1.685-0.518-3.086-1.555-4.201-1.063-1.193-2.372-1.789-3.928-1.789zm13.855 0c-1.063 0-1.957 0.377-2.683 1.129-0.7 0.648-1.049 1.438-1.049 2.371 0 0.804 0.323 1.543 0.971 2.217 0.674 0.778 1.555 1.374 2.644 1.789 0.83 0.259 1.479 0.636 1.945 1.129 0.493 0.518 0.739 1.036 0.739 1.554 0 0.571-0.195 1.038-0.584 1.401-0.441 0.389-0.945 0.584-1.516 0.584-0.726 0-1.412-0.364-2.06-1.09-0.649-0.674-1.065-1.595-1.247-2.762h-0.892l0.232 4.434h0.856l0.388-0.467c0.234 0.207 0.611 0.376 1.129 0.506 0.493 0.155 1.024 0.234 1.594 0.234 1.245 0 2.321-0.403 3.229-1.207 0.829-0.726 1.244-1.607 1.244-2.644 0-0.752-0.285-1.452-0.856-2.1-0.622-0.674-1.453-1.218-2.49-1.633-0.907-0.285-1.646-0.713-2.217-1.283-0.544-0.596-0.816-1.193-0.816-1.789 0-0.415 0.169-0.779 0.506-1.09 0.311-0.233 0.699-0.349 1.166-0.349 0.57 0 1.129 0.272 1.674 0.816 0.57 0.596 1.048 1.401 1.437 2.412h0.856l-0.233-3.889h-0.855c-0.052 0.13-0.105 0.207-0.157 0.233s-0.115 0.039-0.193 0.039c-0.233 0-0.558-0.09-0.973-0.272-0.544-0.181-1.141-0.273-1.789-0.273zm25.145 0c-1.529 0-2.825 0.636-3.888 1.906-1.063 1.297-1.596 2.788-1.596 4.473 0 1.815 0.533 3.37 1.596 4.666 1.063 1.322 2.346 1.984 3.849 1.984 1.478 0 2.8-0.427 3.967-1.283 1.115-0.855 1.854-1.945 2.217-3.268l-0.662-0.466c-0.571 0.985-1.231 1.711-1.983 2.177-0.7 0.467-1.439 0.702-2.216 0.702-1.193 0-2.217-0.467-3.073-1.401-0.881-0.985-1.322-2.152-1.322-3.5h8.594c0-1.685-0.518-3.086-1.555-4.201-1.063-1.193-2.372-1.789-3.928-1.789zm13.855 0c-1.063 0-1.957 0.377-2.683 1.129-0.7 0.648-1.051 1.438-1.051 2.371 0 0.804 0.325 1.543 0.973 2.217 0.674 0.778 1.555 1.374 2.644 1.789 0.83 0.259 1.479 0.636 1.945 1.129 0.493 0.518 0.739 1.036 0.739 1.554 0 0.571-0.195 1.038-0.584 1.401-0.441 0.389-0.946 0.584-1.516 0.584-0.726 0-1.412-0.364-2.06-1.09-0.649-0.674-1.065-1.595-1.247-2.762h-0.894l0.234 4.434h0.856l0.388-0.467c0.234 0.207 0.611 0.376 1.129 0.506 0.493 0.155 1.024 0.234 1.594 0.234 1.245 0 2.319-0.403 3.227-1.207 0.829-0.726 1.246-1.607 1.246-2.644 0-0.752-0.285-1.452-0.856-2.1-0.622-0.674-1.453-1.218-2.49-1.633-0.907-0.285-1.646-0.713-2.217-1.283-0.544-0.596-0.816-1.193-0.816-1.789 0-0.415 0.169-0.779 0.506-1.09 0.311-0.233 0.699-0.349 1.166-0.349 0.57 0 1.129 0.272 1.674 0.816 0.57 0.596 1.048 1.401 1.437 2.412h0.856l-0.233-3.889h-0.855c-0.052 0.13-0.105 0.207-0.157 0.233-0.051 0.026-0.115 0.039-0.193 0.039-0.233 0-0.558-0.09-0.973-0.272-0.544-0.181-1.14-0.273-1.789-0.273zm-53.012 0.934c0.649 0 1.245 0.377 1.789 1.128 0.597 0.804 0.998 1.815 1.206 3.034h-5.911c0.312-1.348 0.713-2.359 1.205-3.034 0.519-0.751 1.089-1.128 1.711-1.128zm39 0c0.649 0 1.245 0.377 1.789 1.128 0.597 0.804 0.998 1.815 1.206 3.034h-5.911c0.312-1.348 0.713-2.359 1.205-3.034 0.519-0.751 1.089-1.128 1.711-1.128zm-298.51 1.959v4.55c-0.388 0.441-0.75 0.766-1.088 0.973-0.388 0.259-0.777 0.389-1.166 0.389-0.466 0-0.907-0.209-1.322-0.623-0.415-0.415-0.623-0.92-0.623-1.516 0-0.778 0.428-1.517 1.283-2.217 0.804-0.7 1.776-1.219 2.916-1.556zm155.7 1.392v4.551c-0.388 0.441-0.752 0.765-1.089 0.973-0.389 0.259-0.778 0.388-1.166 0.388-0.467 0-0.908-0.208-1.323-0.623s-0.623-0.919-0.623-1.515c0-0.778 0.43-1.517 1.285-2.217 0.804-0.7 1.776-1.22 2.916-1.557zm-215.98 6.113 3.6953 0.118c1.2704 0 2.2551 0.129 2.9551 0.388 0.6222 0.285 0.9336 0.687 0.9336 1.205 0 0.649-0.5177 1.245-1.5547 1.789-1.037 0.519-2.2168 0.778-3.5391 0.778-0.9852 0-1.8536-0.182-2.6055-0.545-0.8296-0.415-1.2441-0.88-1.2441-1.399 0-0.233 0.1294-0.557 0.3887-0.972 0.2592-0.415 0.5818-0.869 0.9707-1.362z"/>
</svg>
