<?xml version="1.0" encoding="utf-8"?>
<svg xmlns="http://www.w3.org/2000/svg" version="1.1" viewBox="0 0 723.29 116.9">
	<title>The second diagram depicts a simplified family tree of the House of Tyndareus. Tyndareus and Leda had a daughter, Clytemnestra. Leda and Zeus had three children: Castor, Polydeauces, and Helen.</title>
	<path d="m298.53 25.699v31.305h-214.83v31.373h1v-30.373h214.83v-1-10.305-21h-1zm111.83 0v31.305h-76.162v1h0.04296v31.518h1v-31.518h179.38v31.518h1v-31.518h174.52v30.373h1v-31.373h-279.78v-31.305h-1z" stroke="#000" stroke-linecap="square"/>
	<path d="m207.77 0-4.394 1.13v0.58h0.699c0.285 0 0.546 0.07 0.779 0.2 0.208 0.13 0.311 0.3 0.311 0.5v4.48c-0.182-0.13-0.532-0.3-1.051-0.51-0.493-0.18-1.023-0.27-1.594-0.27-1.659 0-3.085 0.67-4.277 2.02-1.115 1.3-1.672 2.84-1.672 4.63 0 1.73 0.505 3.23 1.516 4.47 0.985 1.27 2.165 1.91 3.539 1.91 0.881 0 1.66-0.13 2.334-0.39 0.622-0.31 1.023-0.57 1.205-0.78v1.24l4.394-1.36v-0.62c-0.518 0-0.946-0.17-1.283-0.51-0.337-0.41-0.506-0.89-0.506-1.43zm161.94 0-4.395 1.13v0.58h0.699c0.286 0 0.544 0.07 0.778 0.2 0.207 0.13 0.31 0.3 0.31 0.5v4.48c-0.181-0.13-0.53-0.3-1.049-0.51-0.492-0.18-1.023-0.27-1.593-0.27-1.66 0-3.087 0.67-4.28 2.02-1.114 1.3-1.671 2.84-1.671 4.63 0 1.73 0.506 3.23 1.517 4.47 0.985 1.27 2.165 1.91 3.539 1.91 0.882 0 1.658-0.13 2.332-0.39 0.622-0.31 1.024-0.57 1.205-0.78v1.24l4.395-1.36v-0.62c-0.519 0-0.946-0.17-1.283-0.51-0.337-0.41-0.504-0.89-0.504-1.43zm-225.17 0.59-0.233 4.9h0.973c0.311-1.15 0.776-2.08 1.398-2.81 0.597-0.64 1.206-0.97 1.829-0.97h2.373v14.59c0 0.57-0.182 1.05-0.545 1.44-0.389 0.36-0.83 0.54-1.323 0.54h-0.66v0.58h8.438v-0.58h-0.66c-0.493 0-0.921-0.18-1.284-0.54-0.389-0.39-0.584-0.87-0.584-1.44v-14.59h2.373c0.623 0 1.243 0.33 1.866 0.97 0.622 0.73 1.089 1.66 1.4 2.81h0.934l-0.233-4.9zm178.48 0v0.62h0.699c0.467 0 0.895 0.15 1.284 0.46 0.363 0.34 0.545 0.76 0.545 1.25v13.65c0 0.47-0.182 0.88-0.545 1.24-0.389 0.31-0.817 0.47-1.284 0.47h-0.699v0.58h15.516l1.012-4.9h-0.856c-0.415 1.17-1.037 2.09-1.867 2.76-0.882 0.7-1.801 1.05-2.76 1.05h-4.045c-0.337 0-0.648-0.1-0.933-0.31-0.26-0.28-0.389-0.58-0.389-0.89v-13.38c0-0.57 0.169-1.06 0.506-1.48 0.311-0.33 0.673-0.5 1.088-0.5h0.662v-0.62zm106.32 0-0.583 4.9h0.894c0.311-1.15 0.855-2.08 1.633-2.81 0.752-0.64 1.594-0.97 2.527-0.97h6.457l-12.211 16.61v0.54h16.293l0.506-5.13h-0.855c-0.363 1.24-0.96 2.23-1.789 2.95-0.83 0.73-1.698 1.09-2.606 1.09h-7.193l12.443-16.64v-0.54zm-245.19 5.48-4.394 1.36v0.58h0.972c0.182 0 0.364 0.11 0.545 0.32 0.182 0.28 0.272 0.58 0.272 0.89v7.58c0 0.44-0.13 0.81-0.389 1.09-0.207 0.26-0.44 0.39-0.699 0.39h-0.701v0.58h6.183v-0.58h-0.699c-0.259 0-0.507-0.13-0.74-0.39-0.234-0.28-0.35-0.65-0.35-1.09v-7.43c0.467-0.54 0.934-0.95 1.4-1.24 0.467-0.31 0.868-0.47 1.206-0.47 0.492 0 0.907 0.19 1.244 0.55 0.414 0.44 0.623 0.96 0.623 1.55v7.04c0 0.44-0.103 0.81-0.311 1.09-0.155 0.26-0.337 0.39-0.545 0.39h-0.699v0.58h5.949v-0.58h-0.738c-0.259 0-0.494-0.13-0.701-0.39-0.234-0.28-0.35-0.65-0.35-1.09v-7.04c0-0.98-0.311-1.82-0.933-2.52-0.649-0.76-1.438-1.13-2.372-1.13-0.751 0-1.49 0.19-2.216 0.58-0.726 0.36-1.246 0.74-1.557 1.13zm48.217 0-4.588 1.36-0.195 0.58h1.089c0.286 0 0.545 0.11 0.778 0.32 0.207 0.25 0.31 0.55 0.31 0.89v7.58c0 0.44-0.142 0.81-0.427 1.09-0.286 0.26-0.597 0.39-0.934 0.39h-0.621v0.58h6.883v-0.58h-0.662c-0.415 0-0.79-0.13-1.127-0.39-0.337-0.28-0.506-0.65-0.506-1.09v-7.19c0.311-0.49 0.622-0.9 0.933-1.21 0.286-0.26 0.518-0.39 0.7-0.39 0.103 0 0.235 0.04 0.39 0.12 0.182 0.05 0.336 0.13 0.465 0.23 0.156 0.16 0.311 0.26 0.467 0.31 0.181 0.08 0.363 0.12 0.545 0.12 0.363 0 0.687-0.14 0.973-0.43 0.233-0.28 0.349-0.57 0.349-0.85 0-0.37-0.142-0.68-0.428-0.93-0.363-0.32-0.79-0.47-1.283-0.47-0.648 0-1.297 0.22-1.945 0.66-0.571 0.41-0.959 0.79-1.166 1.13zm-14.401 0.04c-1.166 0-2.164 0.31-2.994 0.93-0.829 0.52-1.244 1.17-1.244 1.95 0 0.33 0.116 0.63 0.35 0.89 0.285 0.26 0.623 0.39 1.012 0.39 0.414 0 0.752-0.1 1.011-0.31 0.234-0.21 0.35-0.46 0.35-0.74 0-0.08-0.026-0.25-0.078-0.51l-0.117-0.74c0-0.31 0.168-0.57 0.505-0.77 0.337-0.19 0.739-0.28 1.205-0.28 0.571 0 1.051 0.16 1.44 0.47 0.441 0.36 0.662 0.81 0.662 1.32v1.87c-2.022 0.57-3.708 1.33-5.057 2.29-1.348 1.04-2.021 2.1-2.021 3.19 0 0.83 0.272 1.55 0.816 2.14 0.571 0.62 1.231 0.94 1.983 0.94 1.089 0 2.049-0.16 2.879-0.47 0.803-0.34 1.282-0.62 1.437-0.86 0 0.19 0.182 0.43 0.545 0.74 0.389 0.39 0.843 0.59 1.361 0.59 0.674 0 1.258-0.19 1.75-0.55 0.519-0.36 0.883-0.83 1.09-1.4l-0.662-0.23c-0.155 0.21-0.272 0.35-0.349 0.43-0.13 0.07-0.233 0.11-0.311 0.11-0.207 0-0.403-0.08-0.584-0.23-0.156-0.18-0.232-0.42-0.232-0.7v-6.57c0-1.25-0.404-2.19-1.207-2.84-0.804-0.7-1.984-1.05-3.54-1.05zm28.102 0c-1.53 0-2.828 0.63-3.891 1.9-1.063 1.3-1.593 2.79-1.593 4.48 0 1.81 0.53 3.37 1.593 4.66 1.063 1.32 2.348 1.99 3.852 1.99 1.478 0 2.8-0.43 3.967-1.29 1.115-0.85 1.852-1.94 2.215-3.26l-0.661-0.47c-0.57 0.98-1.23 1.71-1.982 2.18-0.7 0.46-1.439 0.7-2.217 0.7-1.192 0-2.216-0.47-3.072-1.4-0.882-0.99-1.322-2.16-1.322-3.5h8.593c0-1.69-0.517-3.09-1.554-4.2-1.063-1.19-2.372-1.79-3.928-1.79zm30.355 0c-1.062 0-1.957 0.37-2.683 1.13-0.7 0.64-1.051 1.44-1.051 2.37 0 0.8 0.325 1.54 0.973 2.22 0.674 0.77 1.555 1.37 2.644 1.78 0.83 0.26 1.477 0.64 1.944 1.13 0.492 0.52 0.74 1.04 0.74 1.56 0 0.57-0.195 1.03-0.584 1.4-0.441 0.39-0.947 0.58-1.518 0.58-0.726 0-1.412-0.36-2.06-1.09-0.648-0.67-1.063-1.59-1.244-2.76h-0.895l0.234 4.43h0.856l0.389-0.46c0.233 0.2 0.608 0.37 1.127 0.5 0.492 0.16 1.023 0.24 1.593 0.24 1.245 0 2.321-0.41 3.229-1.21 0.829-0.73 1.244-1.61 1.244-2.64 0-0.76-0.285-1.46-0.855-2.11-0.623-0.67-1.452-1.21-2.489-1.63-0.907-0.28-1.646-0.71-2.217-1.28-0.544-0.6-0.816-1.19-0.816-1.79 0-0.42 0.169-0.78 0.506-1.09 0.311-0.23 0.699-0.35 1.166-0.35 0.57 0 1.127 0.27 1.672 0.82 0.57 0.59 1.05 1.4 1.439 2.41h0.856l-0.235-3.89h-0.855c-0.052 0.13-0.103 0.21-0.154 0.23-0.052 0.03-0.118 0.04-0.196 0.04-0.233 0-0.558-0.09-0.972-0.27-0.545-0.18-1.139-0.27-1.788-0.27zm72.155 0c-1.53 0-2.826 0.63-3.889 1.9-1.063 1.3-1.594 2.79-1.594 4.48 0 1.81 0.531 3.37 1.594 4.66 1.063 1.32 2.346 1.99 3.85 1.99 1.478 0 2.8-0.43 3.967-1.29 1.114-0.85 1.853-1.94 2.216-3.26l-0.66-0.47c-0.57 0.98-1.232 1.71-1.984 2.18-0.7 0.46-1.439 0.7-2.217 0.7-1.193 0-2.217-0.47-3.072-1.4-0.882-0.99-1.323-2.16-1.323-3.5h8.596c0-1.69-0.519-3.09-1.556-4.2-1.063-1.19-2.373-1.79-3.928-1.79zm31.328 0c-1.167 0-2.165 0.31-2.994 0.93-0.83 0.52-1.244 1.17-1.244 1.95 0 0.33 0.116 0.63 0.349 0.89 0.285 0.26 0.621 0.39 1.01 0.39 0.415 0 0.752-0.1 1.012-0.31 0.233-0.21 0.349-0.46 0.349-0.74 0-0.08-0.024-0.25-0.076-0.51l-0.117-0.74c0-0.31 0.169-0.57 0.506-0.77 0.337-0.19 0.738-0.28 1.205-0.28 0.57 0 1.05 0.16 1.439 0.47 0.441 0.36 0.661 0.81 0.661 1.32v1.87c-2.023 0.57-3.707 1.33-5.055 2.29-1.348 1.04-2.024 2.1-2.024 3.19 0 0.83 0.272 1.55 0.817 2.14 0.57 0.62 1.232 0.94 1.984 0.94 1.089 0 2.047-0.16 2.877-0.47 0.804-0.34 1.284-0.62 1.44-0.86 0 0.19 0.182 0.43 0.545 0.74 0.388 0.39 0.842 0.59 1.361 0.59 0.674 0 1.257-0.19 1.75-0.55 0.518-0.36 0.88-0.83 1.088-1.4l-0.66-0.23c-0.156 0.21-0.274 0.35-0.352 0.43-0.13 0.07-0.233 0.11-0.311 0.11-0.207 0-0.4-0.08-0.582-0.23-0.155-0.18-0.234-0.42-0.234-0.7v-6.57c0-1.25-0.401-2.19-1.205-2.84-0.804-0.7-1.984-1.05-3.539-1.05zm74.139 0c-1.53 0-2.826 0.63-3.889 1.9-1.063 1.3-1.596 2.79-1.596 4.48 0 1.81 0.533 3.37 1.596 4.66 1.063 1.32 2.346 1.99 3.85 1.99 1.477 0 2.8-0.43 3.966-1.29 1.115-0.85 1.854-1.94 2.217-3.26l-0.662-0.47c-0.57 0.98-1.231 1.71-1.982 2.18-0.7 0.46-1.439 0.7-2.217 0.7-1.193 0-2.217-0.47-3.072-1.4-0.882-0.99-1.323-2.16-1.323-3.5h8.594c0-1.69-0.518-3.09-1.555-4.2-1.063-1.19-2.372-1.79-3.927-1.79zm30.355 0c-1.063 0-1.958 0.37-2.684 1.13-0.7 0.64-1.048 1.44-1.048 2.37 0 0.8 0.322 1.54 0.97 2.22 0.674 0.77 1.556 1.37 2.645 1.78 0.829 0.26 1.479 0.64 1.945 1.13 0.493 0.52 0.738 1.04 0.738 1.56 0 0.57-0.195 1.03-0.584 1.4-0.44 0.39-0.945 0.58-1.515 0.58-0.726 0-1.413-0.36-2.061-1.09-0.648-0.67-1.064-1.59-1.246-2.76h-0.892l0.232 4.43h0.856l0.388-0.46c0.234 0.2 0.611 0.37 1.129 0.5 0.493 0.16 1.023 0.24 1.594 0.24 1.244 0 2.321-0.41 3.228-1.21 0.83-0.73 1.244-1.61 1.244-2.64 0-0.76-0.285-1.46-0.855-2.11-0.622-0.67-1.453-1.21-2.49-1.63-0.908-0.28-1.647-0.71-2.217-1.28-0.544-0.6-0.816-1.19-0.816-1.79 0-0.42 0.168-0.78 0.505-1.09 0.312-0.23 0.7-0.35 1.166-0.35 0.571 0 1.13 0.27 1.674 0.82 0.571 0.59 1.049 1.4 1.438 2.41h0.855l-0.232-3.89h-0.856c-0.051 0.13-0.104 0.21-0.156 0.23-0.052 0.03-0.115 0.04-0.193 0.04-0.234 0-0.558-0.09-0.973-0.27-0.544-0.18-1.141-0.27-1.789-0.27zm-320.79 0.27v0.66c0.389 0 0.712 0.11 0.971 0.31 0.311 0.29 0.572 0.66 0.779 1.13l4.549 10.11-0.973 2.53c-0.181 0.44-0.401 0.79-0.66 1.05-0.259 0.28-0.494 0.43-0.701 0.43-0.026 0-0.129-0.04-0.311-0.12l-0.349-0.15c-0.467-0.19-0.921-0.28-1.362-0.28-0.414 0-0.765 0.16-1.05 0.47-0.234 0.34-0.35 0.7-0.35 1.09 0 0.34 0.208 0.64 0.623 0.93 0.389 0.26 0.843 0.39 1.361 0.39 0.908 0 1.737-0.36 2.489-1.09 0.7-0.67 1.244-1.59 1.633-2.76l4.939-12.6c0.156-0.47 0.388-0.83 0.699-1.09 0.234-0.23 0.558-0.35 0.973-0.35v-0.66h-4.16v0.66h0.66c0.155 0 0.285 0.04 0.389 0.12 0.129 0.05 0.195 0.17 0.195 0.35 0 0.36-0.04 0.7-0.117 1.01l-2.645 7.08-3.189-7.12c-0.078-0.18-0.116-0.39-0.116-0.62s0.064-0.46 0.194-0.66c0.103-0.11 0.22-0.16 0.349-0.16h1.09v-0.66zm91.805 0v0.66h0.699c0.259 0 0.507 0.09 0.74 0.27 0.234 0.24 0.35 0.54 0.35 0.9v7.35c0 0.96 0.362 1.8 1.088 2.53 0.7 0.7 1.518 1.05 2.451 1.05 0.959 0 1.775-0.2 2.449-0.59 0.726-0.41 1.167-0.75 1.322-1.01v1.67l4.395-1.4v-0.58h-0.973c-0.181 0-0.35-0.09-0.506-0.27-0.207-0.26-0.31-0.56-0.31-0.9v-9.68h-4.627v0.66h0.699c0.337 0 0.635 0.12 0.895 0.35 0.285 0.31 0.427 0.67 0.427 1.09v7.08c-0.311 0.52-0.712 0.94-1.205 1.28-0.44 0.26-0.907 0.39-1.4 0.39-0.545 0-1.025-0.19-1.44-0.58-0.44-0.44-0.66-0.98-0.66-1.6v-8.67zm207.98 0v0.66h0.701c0.26 0 0.505 0.09 0.739 0.27 0.233 0.24 0.349 0.54 0.349 0.9v7.35c0 0.96 0.364 1.8 1.09 2.53 0.7 0.7 1.516 1.05 2.449 1.05 0.96 0 1.778-0.2 2.452-0.59 0.726-0.41 1.166-0.75 1.322-1.01v1.67l4.392-1.4v-0.58h-0.97c-0.182 0-0.351-0.09-0.506-0.27-0.208-0.26-0.311-0.56-0.311-0.9v-9.68h-4.629v0.66h0.702c0.337 0 0.633 0.12 0.892 0.35 0.285 0.31 0.43 0.67 0.43 1.09v7.08c-0.311 0.52-0.715 0.94-1.207 1.28-0.441 0.26-0.908 0.39-1.401 0.39-0.544 0-1.022-0.19-1.437-0.58-0.441-0.44-0.662-0.98-0.662-1.6v-8.67zm-260.87 0.66c0.519 0 0.986 0.16 1.401 0.47 0.492 0.31 0.907 0.76 1.244 1.36v7.43c-0.363 0.44-0.765 0.79-1.205 1.05-0.363 0.2-0.804 0.31-1.323 0.31-0.829 0-1.608-0.59-2.334-1.75-0.725-1.22-1.087-2.69-1.087-4.4 0-1.27 0.348-2.34 1.048-3.22 0.649-0.83 1.401-1.25 2.256-1.25zm43.395 0c0.648 0 1.244 0.38 1.789 1.13 0.596 0.8 0.998 1.81 1.205 3.03h-5.91c0.311-1.35 0.712-2.36 1.205-3.03 0.518-0.75 1.089-1.13 1.711-1.13zm102.51 0c0.648 0 1.244 0.38 1.789 1.13 0.596 0.8 0.999 1.81 1.207 3.03h-5.912c0.311-1.35 0.712-2.36 1.205-3.03 0.518-0.75 1.088-1.13 1.711-1.13zm16.035 0c0.518 0 0.983 0.16 1.398 0.47 0.493 0.31 0.907 0.76 1.244 1.36v7.43c-0.363 0.44-0.764 0.79-1.205 1.05-0.363 0.2-0.804 0.31-1.322 0.31-0.83 0-1.606-0.59-2.332-1.75-0.726-1.22-1.09-2.69-1.09-4.4 0-1.27 0.351-2.34 1.051-3.22 0.648-0.83 1.4-1.25 2.256-1.25zm89.431 0c0.648 0 1.245 0.38 1.789 1.13 0.597 0.8 0.998 1.81 1.205 3.03h-5.91c0.311-1.35 0.713-2.36 1.205-3.03 0.519-0.75 1.089-1.13 1.711-1.13zm-156.56 1.29v1.59h10.267v-1.59zm104.73 0v1.59h10.266v-1.59zm-181.99 3.18v4.55c-0.389 0.44-0.753 0.77-1.09 0.98-0.389 0.26-0.777 0.38-1.166 0.38-0.467 0-0.907-0.2-1.322-0.62-0.415-0.41-0.623-0.92-0.623-1.51 0-0.78 0.428-1.52 1.283-2.22 0.804-0.7 1.777-1.22 2.918-1.56zm161.94 0v4.55c-0.389 0.44-0.751 0.77-1.088 0.98-0.389 0.26-0.779 0.38-1.168 0.38-0.467 0-0.908-0.2-1.323-0.62-0.414-0.41-0.621-0.92-0.621-1.51 0-0.78 0.428-1.52 1.284-2.22 0.803-0.7 1.775-1.22 2.916-1.56zm-84.678 2.22v1.56h10.267v-1.56zm104.73 0v1.56h10.266v-1.56zm-377.16 74.48-4.666 1.12v0.59h1.205c0.208 0 0.376 0.1 0.506 0.31 0.207 0.26 0.311 0.56 0.311 0.89v13.88c0 0.45-0.143 0.81-0.428 1.09-0.259 0.26-0.558 0.39-0.895 0.39h-0.699v0.59h6.649v-0.59h-0.7c-0.285 0-0.57-0.13-0.855-0.39-0.285-0.28-0.428-0.64-0.428-1.09zm-15.373 0.23c-2.904 0-5.224 0.92-6.961 2.76-1.711 1.84-2.566 4.25-2.566 7.23 0 2.75 0.868 4.98 2.605 6.69 1.711 1.64 3.955 2.45 6.729 2.45 1.789 0 3.357-0.32 4.705-0.97 1.4-0.65 2.476-1.56 3.228-2.72l-0.701-0.55c-0.985 0.96-2.049 1.68-3.189 2.14-1.115 0.47-2.216 0.7-3.305 0.7-1.97 0-3.538-0.67-4.705-2.02-1.219-1.45-1.828-3.36-1.828-5.72 0-2.64 0.583-4.78 1.75-6.41 1.141-1.56 2.632-2.34 4.472-2.34 1.271 0 2.451 0.44 3.54 1.32 1.14 0.91 1.982 2.16 2.527 3.74h0.973l-0.274-6.22h-1.127c-0.052 0.28-0.181 0.48-0.389 0.58-0.181 0.16-0.402 0.23-0.662 0.23-0.129 0-0.517-0.14-1.166-0.42l-0.427-0.12c-0.649-0.23-1.725-0.35-3.229-0.35zm289.65 1.66c-2.904 0-5.224 0.92-6.961 2.76-1.712 1.85-2.567 4.26-2.567 7.24 0 2.75 0.869 4.98 2.606 6.69 1.711 1.63 3.954 2.45 6.728 2.45 1.789 0 3.357-0.33 4.705-0.98 1.4-0.64 2.477-1.55 3.229-2.72l-0.701-0.54c-0.986 0.96-2.047 1.67-3.188 2.14-1.115 0.46-2.218 0.7-3.307 0.7-1.97 0-3.538-0.68-4.705-2.02-1.218-1.46-1.828-3.36-1.828-5.72 0-2.65 0.584-4.79 1.75-6.42 1.141-1.55 2.632-2.33 4.473-2.33 1.27 0 2.45 0.44 3.539 1.32 1.141 0.91 1.983 2.15 2.527 3.73h0.973l-0.273-6.22h-1.127c-0.052 0.29-0.182 0.48-0.389 0.58-0.182 0.16-0.403 0.24-0.662 0.24-0.13 0-0.518-0.15-1.166-0.43l-0.428-0.12c-0.648-0.23-1.725-0.35-3.228-0.35zm-250.03 0.98c-0.285 0.76-0.726 1.45-1.322 2.1s-1.335 1.23-2.217 1.75v0.82h1.789v8.75c0 0.75 0.233 1.41 0.699 1.98 0.441 0.57 0.961 0.86 1.557 0.86 0.856 0 1.595-0.16 2.217-0.47 0.622-0.33 1.087-0.79 1.398-1.36l-0.582-0.39c-0.207 0.29-0.429 0.47-0.662 0.55-0.181 0.13-0.401 0.19-0.66 0.19-0.363 0-0.674-0.13-0.934-0.39-0.285-0.36-0.427-0.76-0.427-1.2v-8.68h2.798v-1.01h-2.798v-3.5zm94.994 0c-0.285 0.76-0.726 1.45-1.322 2.1s-1.335 1.23-2.217 1.75v0.82h1.789v8.75c0 0.75 0.233 1.41 0.7 1.98 0.44 0.57 0.96 0.86 1.556 0.86 0.856 0 1.595-0.16 2.217-0.47 0.622-0.33 1.087-0.79 1.398-1.36l-0.582-0.39c-0.207 0.29-0.428 0.47-0.662 0.55-0.181 0.13-0.401 0.19-0.66 0.19-0.363 0-0.674-0.13-0.934-0.39-0.285-0.36-0.427-0.76-0.427-1.2v-8.68h2.801v-1.01h-2.801v-3.5zm333.03 0.89-4.666 1.13v0.59h1.205c0.207 0 0.376 0.1 0.505 0.31 0.208 0.26 0.311 0.55 0.311 0.89v13.88c0 0.45-0.143 0.81-0.428 1.09-0.259 0.26-0.557 0.39-0.894 0.39h-0.699v0.59h6.648v-0.59h-0.699c-0.285 0-0.571-0.13-0.856-0.39-0.285-0.28-0.427-0.64-0.427-1.09zm32.455 0-4.395 1.13v0.59h0.701c0.285 0 0.544 0.06 0.778 0.19 0.207 0.13 0.31 0.3 0.31 0.51v4.47c-0.181-0.13-0.53-0.3-1.049-0.51-0.492-0.18-1.025-0.27-1.595-0.27-1.66 0-3.085 0.67-4.278 2.02-1.115 1.3-1.672 2.84-1.672 4.63 0 1.74 0.505 3.23 1.516 4.47 0.985 1.27 2.165 1.91 3.539 1.91 0.882 0 1.66-0.13 2.334-0.39 0.622-0.31 1.024-0.57 1.205-0.78v1.25l4.395-1.36v-0.63c-0.519 0-0.946-0.17-1.284-0.5-0.337-0.42-0.505-0.9-0.505-1.44zm-71.678 0.59v0.62h0.701c0.467 0 0.894 0.16 1.283 0.47 0.363 0.33 0.543 0.75 0.543 1.24v13.38c0 0.57-0.193 1.05-0.582 1.44-0.363 0.36-0.777 0.54-1.244 0.54h-0.701v0.59h8.168v-0.59h-0.662c-0.467 0-0.895-0.18-1.283-0.54-0.363-0.39-0.545-0.87-0.545-1.44v-5.25h2.099c2.178 0 3.941-0.48 5.289-1.44 1.271-0.96 1.907-2.23 1.907-3.81 0-1.53-0.61-2.79-1.829-3.77-1.192-0.96-2.826-1.44-4.9-1.44zm-96.238 0.19c-0.286 0.75-0.726 1.45-1.323 2.1-0.596 0.65-1.335 1.23-2.216 1.75v0.82h1.789v8.75c0 0.75 0.234 1.41 0.701 1.98 0.441 0.57 0.958 0.85 1.554 0.85 0.856 0 1.595-0.15 2.217-0.46 0.622-0.34 1.09-0.79 1.401-1.37l-0.584-0.38c-0.208 0.28-0.427 0.46-0.66 0.54-0.182 0.13-0.403 0.2-0.663 0.2-0.363 0-0.674-0.13-0.933-0.39-0.285-0.37-0.428-0.77-0.428-1.21v-8.67h2.801v-1.01h-2.801v-3.5zm104.02 0.94c1.141 0 2.049 0.36 2.723 1.08 0.752 0.76 1.129 1.75 1.129 3 0 1.27-0.377 2.29-1.129 3.07-0.674 0.73-1.633 1.09-2.877 1.09h-1.945v-7.04c0-0.34 0.195-0.62 0.584-0.85 0.44-0.24 0.945-0.35 1.515-0.35zm-369.49 0.58-4.666 1.36v0.59h1.205c0.207 0 0.389 0.07 0.545 0.23 0.181 0.21 0.272 0.45 0.272 0.74v7.81c0 0.45-0.143 0.81-0.428 1.09-0.259 0.26-0.558 0.39-0.895 0.39h-0.699v0.59h6.416v-0.59h-0.66c-0.259 0-0.505-0.13-0.738-0.39-0.234-0.28-0.352-0.64-0.352-1.09v-7.62c0.311-0.44 0.739-0.81 1.283-1.12 0.493-0.26 1.039-0.39 1.635-0.39 0.467 0 0.855 0.17 1.166 0.5 0.389 0.34 0.584 0.78 0.584 1.32v7.31c0 0.45-0.118 0.81-0.352 1.09-0.207 0.26-0.453 0.39-0.738 0.39h-0.621v0.59h6.377v-0.59h-0.699c-0.337 0-0.635-0.13-0.895-0.39-0.259-0.28-0.388-0.64-0.388-1.09v-7.42c0.337-0.55 0.775-0.96 1.32-1.25 0.467-0.31 0.96-0.46 1.478-0.46 0.571 0 1.064 0.2 1.479 0.62 0.415 0.49 0.621 1.06 0.621 1.71v6.8c0 0.45-0.129 0.81-0.389 1.09-0.181 0.26-0.414 0.39-0.699 0.39h-0.662v0.59h6.145v-0.59h-0.661c-0.259 0-0.506-0.13-0.74-0.39-0.233-0.28-0.349-0.64-0.349-1.09v-6.57c0-1.09-0.336-2.03-1.01-2.84-0.622-0.85-1.44-1.28-2.451-1.28-0.934 0-1.828 0.2-2.684 0.59-0.83 0.36-1.45 0.8-1.865 1.32-0.259-0.49-0.687-0.92-1.283-1.29-0.571-0.41-1.207-0.62-1.907-0.62-0.622 0-1.284 0.18-1.984 0.55-0.674 0.28-1.244 0.62-1.711 1.01zm24.084 0-4.395 1.36v0.59h0.973c0.182 0 0.364 0.1 0.545 0.31 0.182 0.28 0.272 0.58 0.272 0.89v7.58c0 0.45-0.13 0.81-0.389 1.09-0.208 0.26-0.442 0.39-0.701 0.39h-0.7v0.59h6.184v-0.59h-0.701c-0.259 0-0.505-0.13-0.738-0.39-0.234-0.28-0.35-0.64-0.35-1.09v-7.42c0.467-0.55 0.934-0.96 1.4-1.25 0.467-0.31 0.868-0.46 1.205-0.46 0.493 0 0.908 0.18 1.245 0.54 0.414 0.44 0.623 0.96 0.623 1.56v7.03c0 0.45-0.105 0.81-0.313 1.09-0.155 0.26-0.335 0.39-0.543 0.39h-0.701v0.59h5.951v-0.59h-0.74c-0.259 0-0.492-0.13-0.699-0.39-0.234-0.28-0.35-0.64-0.35-1.09v-7.03c0-0.99-0.311-1.83-0.933-2.53-0.649-0.75-1.44-1.13-2.373-1.13-0.752 0-1.491 0.2-2.217 0.59-0.726 0.36-1.244 0.73-1.555 1.12zm55.5 0-4.59 1.36-0.193 0.59h1.088c0.285 0 0.546 0.1 0.779 0.31 0.207 0.26 0.311 0.56 0.311 0.89v7.58c0 0.45-0.143 0.81-0.428 1.09-0.285 0.26-0.597 0.39-0.934 0.39h-0.623v0.59h6.885v-0.59h-0.662c-0.415 0-0.79-0.13-1.127-0.39-0.337-0.28-0.506-0.64-0.506-1.09v-7.19c0.311-0.49 0.623-0.89 0.934-1.2 0.285-0.26 0.517-0.39 0.699-0.39 0.104 0 0.233 0.04 0.389 0.11 0.181 0.06 0.337 0.13 0.466 0.24 0.156 0.15 0.312 0.26 0.467 0.31 0.182 0.08 0.364 0.12 0.545 0.12 0.363 0 0.687-0.15 0.973-0.43 0.233-0.29 0.349-0.57 0.349-0.86 0-0.36-0.142-0.67-0.427-0.93-0.363-0.31-0.791-0.47-1.284-0.47-0.648 0-1.297 0.22-1.945 0.66-0.57 0.42-0.959 0.79-1.166 1.13zm-93.594 0.04c-1.529 0-2.825 0.64-3.888 1.91-1.063 1.29-1.596 2.78-1.596 4.47 0 1.81 0.533 3.37 1.596 4.67 1.063 1.32 2.345 1.98 3.849 1.98 1.478 0 2.8-0.43 3.967-1.28 1.115-0.86 1.854-1.95 2.217-3.27l-0.662-0.47c-0.571 0.99-1.231 1.71-1.983 2.18-0.7 0.47-1.439 0.7-2.217 0.7-1.192 0-2.216-0.47-3.072-1.4-0.881-0.99-1.322-2.15-1.322-3.5h8.594c0-1.69-0.518-3.08-1.555-4.2-1.063-1.19-2.372-1.79-3.928-1.79zm55.994 0c-1.529 0-2.825 0.64-3.888 1.91-1.063 1.29-1.596 2.78-1.596 4.47 0 1.81 0.533 3.37 1.596 4.67 1.063 1.32 2.346 1.98 3.849 1.98 1.478 0 2.8-0.43 3.967-1.28 1.115-0.86 1.854-1.95 2.217-3.27l-0.662-0.47c-0.571 0.99-1.231 1.71-1.983 2.18-0.7 0.47-1.439 0.7-2.216 0.7-1.193 0-2.217-0.47-3.073-1.4-0.881-0.99-1.322-2.15-1.322-3.5h8.594c0-1.69-0.518-3.08-1.555-4.2-1.063-1.19-2.372-1.79-3.928-1.79zm13.856 0c-1.063 0-1.958 0.38-2.684 1.13-0.7 0.65-1.051 1.44-1.051 2.37 0 0.81 0.325 1.54 0.973 2.22 0.674 0.78 1.556 1.37 2.645 1.79 0.829 0.26 1.478 0.63 1.945 1.12 0.493 0.52 0.738 1.04 0.738 1.56 0 0.57-0.195 1.04-0.584 1.4-0.44 0.39-0.945 0.58-1.515 0.58-0.726 0-1.415-0.36-2.063-1.08-0.648-0.68-1.062-1.6-1.244-2.77h-0.895l0.235 4.44h0.855l0.389-0.47c0.233 0.21 0.608 0.38 1.127 0.51 0.493 0.15 1.025 0.23 1.596 0.23 1.244 0 2.319-0.4 3.226-1.21 0.83-0.72 1.246-1.6 1.246-2.64 0-0.75-0.287-1.45-0.857-2.1-0.622-0.67-1.451-1.22-2.488-1.63-0.908-0.29-1.647-0.72-2.217-1.29-0.545-0.59-0.817-1.19-0.817-1.79 0-0.41 0.169-0.77 0.506-1.09 0.311-0.23 0.7-0.34 1.166-0.34 0.571 0 1.128 0.27 1.672 0.81 0.571 0.6 1.051 1.4 1.44 2.41h0.855l-0.232-3.89h-0.856c-0.052 0.13-0.104 0.21-0.156 0.24-0.052 0.02-0.118 0.04-0.195 0.04-0.234 0-0.556-0.1-0.971-0.28-0.545-0.18-1.141-0.27-1.789-0.27zm36.744 0c-1.167 0-2.164 0.31-2.994 0.94-0.83 0.51-1.244 1.16-1.244 1.94 0 0.34 0.116 0.63 0.349 0.89 0.286 0.26 0.621 0.39 1.01 0.39 0.415 0 0.753-0.1 1.012-0.31 0.233-0.21 0.349-0.45 0.349-0.74 0-0.07-0.024-0.24-0.076-0.5l-0.117-0.74c0-0.31 0.169-0.57 0.506-0.78 0.337-0.18 0.738-0.27 1.205-0.27 0.57 0 1.051 0.15 1.439 0.46 0.441 0.37 0.661 0.81 0.661 1.33v1.86c-2.023 0.57-3.707 1.34-5.055 2.3-1.348 1.03-2.023 2.1-2.023 3.19 0 0.83 0.271 1.54 0.816 2.14 0.57 0.62 1.232 0.93 1.984 0.93 1.089 0 2.048-0.16 2.877-0.47 0.804-0.33 1.284-0.62 1.44-0.85 0 0.18 0.182 0.42 0.545 0.74 0.388 0.38 0.842 0.58 1.361 0.58 0.674 0 1.257-0.18 1.75-0.55 0.518-0.36 0.88-0.82 1.088-1.39l-0.66-0.24c-0.156 0.21-0.274 0.35-0.352 0.43-0.13 0.08-0.233 0.12-0.31 0.12-0.208 0-0.401-0.08-0.582-0.24-0.156-0.18-0.235-0.41-0.235-0.7v-6.57c0-1.24-0.401-2.19-1.205-2.84-0.804-0.7-1.983-1.05-3.539-1.05zm520.81 0.2-4.666 1.13v0.58h1.205c0.207 0 0.376 0.1 0.506 0.31 0.207 0.26 0.31 0.56 0.31 0.89v13.89c0 0.44-0.142 0.8-0.428 1.09-0.259 0.26-0.555 0.39-0.892 0.39h-0.701v0.58h6.65v-0.58h-0.699c-0.285 0-0.572-0.13-0.858-0.39-0.285-0.29-0.427-0.65-0.427-1.09zm-660.09 0.07v0.67c0.389 0 0.713 0.1 0.972 0.31 0.312 0.28 0.57 0.66 0.778 1.12l4.551 10.11-0.973 2.53c-0.182 0.44-0.403 0.79-0.662 1.05-0.259 0.29-0.492 0.43-0.699 0.43-0.026 0-0.129-0.04-0.311-0.12l-0.351-0.15c-0.467-0.18-0.919-0.27-1.36-0.27-0.415 0-0.765 0.15-1.051 0.46-0.233 0.34-0.349 0.7-0.349 1.09 0 0.34 0.206 0.65 0.621 0.94 0.389 0.25 0.843 0.38 1.361 0.38 0.908 0 1.737-0.36 2.488-1.09 0.7-0.67 1.246-1.59 1.635-2.76l4.938-12.6c0.155-0.46 0.39-0.83 0.701-1.09 0.233-0.23 0.558-0.34 0.973-0.34v-0.67h-4.163v0.67h0.663c0.155 0 0.284 0.03 0.388 0.11 0.13 0.05 0.194 0.17 0.194 0.35 0 0.37-0.038 0.7-0.116 1.01l-2.644 7.08-3.19-7.12c-0.077-0.18-0.117-0.39-0.117-0.62s0.066-0.45 0.195-0.66c0.104-0.1 0.22-0.15 0.35-0.15h1.088v-0.67zm618.38 0.51v0.62h0.701c0.467 0 0.881 0.19 1.244 0.55 0.389 0.41 0.584 0.89 0.584 1.44v13.1c0 0.57-0.195 1.05-0.584 1.44-0.363 0.37-0.777 0.55-1.244 0.55h-0.701v0.58h7.933v-0.58h-0.66c-0.415 0-0.779-0.18-1.09-0.55-0.337-0.39-0.506-0.87-0.506-1.44v-6.02h7.973v6.02c0 0.57-0.169 1.05-0.506 1.44-0.337 0.37-0.699 0.55-1.088 0.55h-0.662v0.58h7.662v-0.58h-0.662c-0.44 0-0.816-0.18-1.127-0.55-0.311-0.39-0.467-0.87-0.467-1.44v-13.1c0-0.57 0.156-1.07 0.467-1.48 0.311-0.34 0.687-0.51 1.127-0.51h0.662v-0.62h-7.662v0.62h0.662c0.389 0 0.751 0.17 1.088 0.51 0.337 0.41 0.506 0.91 0.506 1.48v5.99h-7.973v-5.99c0-0.57 0.169-1.07 0.506-1.48 0.311-0.34 0.675-0.51 1.09-0.51h0.66v-0.62zm-585.85 0.16c0.648 0 1.245 0.37 1.789 1.12 0.596 0.81 0.998 1.82 1.205 3.04h-5.91c0.311-1.35 0.712-2.36 1.205-3.04 0.519-0.75 1.089-1.12 1.711-1.12zm55.994 0c0.648 0 1.245 0.37 1.789 1.12 0.597 0.81 0.998 1.82 1.205 3.04h-5.91c0.311-1.35 0.713-2.36 1.205-3.04 0.519-0.75 1.089-1.12 1.711-1.12zm251.9 0.69-4.587 1.36-0.196 0.58h1.09c0.285 0 0.544 0.11 0.777 0.31 0.208 0.26 0.311 0.56 0.311 0.9v7.58c0 0.44-0.143 0.8-0.428 1.09-0.285 0.26-0.596 0.39-0.933 0.39h-0.621v0.58h6.882v-0.58h-0.662c-0.415 0-0.79-0.13-1.127-0.39-0.337-0.29-0.506-0.65-0.506-1.09v-7.19c0.312-0.5 0.623-0.9 0.934-1.21 0.285-0.26 0.518-0.39 0.699-0.39 0.104 0 0.235 0.04 0.391 0.12 0.181 0.05 0.335 0.13 0.465 0.23 0.155 0.16 0.311 0.26 0.467 0.31 0.181 0.08 0.363 0.12 0.544 0.12 0.363 0 0.688-0.14 0.973-0.43 0.233-0.28 0.35-0.57 0.35-0.85 0-0.37-0.143-0.68-0.428-0.94-0.363-0.31-0.791-0.46-1.283-0.46-0.648 0-1.297 0.22-1.946 0.66-0.57 0.41-0.958 0.79-1.166 1.12zm-54.566 0.04c-1.167 0-2.164 0.31-2.994 0.93-0.83 0.52-1.244 1.16-1.244 1.94 0 0.34 0.116 0.64 0.349 0.9 0.286 0.26 0.623 0.39 1.012 0.39 0.415 0 0.751-0.11 1.01-0.31 0.233-0.21 0.351-0.46 0.351-0.74 0-0.08-0.026-0.25-0.078-0.51l-0.117-0.74c0-0.31 0.169-0.57 0.506-0.77 0.337-0.19 0.738-0.28 1.205-0.28 0.57 0 1.051 0.16 1.44 0.47 0.44 0.36 0.66 0.8 0.66 1.32v1.87c-2.023 0.57-3.707 1.33-5.055 2.29-1.348 1.04-2.023 2.1-2.023 3.19 0 0.83 0.273 1.54 0.818 2.14 0.57 0.62 1.23 0.93 1.982 0.93 1.089 0 2.048-0.15 2.877-0.46 0.804-0.34 1.284-0.63 1.44-0.86 0 0.18 0.182 0.43 0.545 0.74 0.389 0.39 0.842 0.58 1.361 0.58 0.674 0 1.257-0.18 1.75-0.54 0.518-0.36 0.88-0.83 1.088-1.4l-0.66-0.23c-0.156 0.2-0.272 0.35-0.35 0.42-0.13 0.08-0.235 0.12-0.312 0.12-0.208 0-0.401-0.08-0.582-0.23-0.156-0.18-0.235-0.42-0.235-0.7v-6.58c0-1.24-0.401-2.19-1.205-2.83-0.804-0.7-1.983-1.05-3.539-1.05zm14.244 0c-1.063 0-1.957 0.37-2.683 1.12-0.7 0.65-1.049 1.44-1.049 2.38 0 0.8 0.324 1.54 0.972 2.21 0.674 0.78 1.554 1.38 2.643 1.79 0.83 0.26 1.479 0.64 1.945 1.13 0.493 0.52 0.739 1.04 0.739 1.56 0 0.57-0.194 1.03-0.582 1.4-0.441 0.38-0.948 0.58-1.518 0.58-0.726 0-1.412-0.36-2.061-1.09-0.648-0.67-1.062-1.6-1.244-2.76h-0.894l0.232 4.43h0.856l0.388-0.47c0.234 0.21 0.611 0.38 1.129 0.51 0.493 0.16 1.024 0.23 1.594 0.23 1.244 0 2.321-0.4 3.229-1.2 0.829-0.73 1.244-1.61 1.244-2.65 0-0.75-0.285-1.45-0.856-2.1-0.622-0.67-1.451-1.22-2.488-1.63-0.908-0.29-1.647-0.71-2.217-1.28-0.544-0.6-0.816-1.19-0.816-1.79 0-0.42 0.167-0.78 0.504-1.09 0.311-0.23 0.701-0.35 1.168-0.35 0.57 0 1.127 0.27 1.671 0.82 0.571 0.59 1.051 1.39 1.44 2.41h0.855l-0.234-3.89h-0.855c-0.052 0.13-0.105 0.21-0.157 0.23-0.052 0.03-0.115 0.04-0.193 0.04-0.233 0-0.558-0.09-0.973-0.27-0.544-0.18-1.141-0.27-1.789-0.27zm25.846 0c-1.737 0-3.215 0.63-4.434 1.9-1.192 1.27-1.789 2.76-1.789 4.47 0 1.82 0.597 3.37 1.789 4.67 1.219 1.32 2.644 1.98 4.278 1.98 1.866 0 3.421-0.66 4.666-1.98 1.166-1.3 1.75-2.85 1.75-4.67 0-1.71-0.584-3.2-1.75-4.47-1.245-1.27-2.747-1.9-4.51-1.9zm-0.467 0.93c1.089 0 2.034 0.56 2.838 1.67 0.856 1.17 1.283 2.61 1.283 4.32 0 1.45-0.337 2.69-1.012 3.73-0.57 1.01-1.333 1.52-2.292 1.52-0.96 0-1.854-0.6-2.684-1.79-0.83-1.25-1.244-2.74-1.244-4.47 0-1.4 0.322-2.6 0.97-3.58 0.597-0.93 1.311-1.4 2.141-1.4zm107.83 1.17c-1.737 0-3.215 0.64-4.433 1.91-1.193 1.27-1.789 2.76-1.789 4.47 0 1.81 0.596 3.37 1.789 4.66 1.218 1.33 2.644 1.99 4.277 1.99 1.867 0 3.424-0.66 4.668-1.99 1.167-1.29 1.75-2.85 1.75-4.66 0-1.71-0.583-3.2-1.75-4.47-1.244-1.27-2.749-1.91-4.512-1.91zm57.678 0c-1.53 0-2.826 0.64-3.889 1.91-1.063 1.29-1.595 2.78-1.595 4.47 0 1.81 0.532 3.37 1.595 4.66 1.063 1.33 2.346 1.99 3.85 1.99 1.478 0 2.8-0.43 3.967-1.28 1.115-0.86 1.854-1.95 2.217-3.27l-0.663-0.47c-0.57 0.99-1.23 1.71-1.982 2.18-0.7 0.47-1.439 0.7-2.217 0.7-1.192 0-2.217-0.47-3.072-1.4-0.882-0.99-1.322-2.15-1.322-3.5h8.593c0-1.69-0.517-3.09-1.554-4.2-1.063-1.19-2.372-1.79-3.928-1.79zm32.883 0c-1.815 0-3.357 0.67-4.627 2.02-1.245 1.3-1.867 2.84-1.867 4.63 0 1.74 0.544 3.23 1.632 4.47 1.193 1.27 2.542 1.91 4.045 1.91 1.323 0 2.463-0.4 3.422-1.21 0.934-0.78 1.556-1.77 1.867-2.99l-0.662-0.39c-0.492 0.8-1.076 1.41-1.75 1.83-0.726 0.41-1.502 0.62-2.332 0.62-1.037 0-1.918-0.52-2.644-1.56-0.804-1.09-1.205-2.39-1.205-3.92 0-1.27 0.362-2.34 1.088-3.19 0.751-0.86 1.58-1.29 2.488-1.29 0.415 0 0.779 0.15 1.09 0.43 0.363 0.31 0.582 0.72 0.66 1.21 0.052 0.39 0.221 0.7 0.506 0.93 0.311 0.31 0.675 0.47 1.09 0.47 0.363 0 0.674-0.16 0.933-0.47 0.234-0.26 0.35-0.56 0.35-0.89 0-0.7-0.402-1.3-1.205-1.79-0.778-0.55-1.738-0.82-2.879-0.82zm13.738 0c-1.53 0-2.826 0.64-3.889 1.91-1.063 1.29-1.593 2.78-1.593 4.47 0 1.81 0.53 3.37 1.593 4.66 1.063 1.33 2.348 1.99 3.852 1.99 1.478 0 2.798-0.43 3.965-1.28 1.115-0.86 1.854-1.95 2.217-3.27l-0.661-0.47c-0.57 0.99-1.232 1.71-1.984 2.18-0.7 0.47-1.437 0.7-2.215 0.7-1.192 0-2.216-0.47-3.072-1.4-0.881-0.99-1.322-2.15-1.322-3.5h8.593c0-1.69-0.519-3.09-1.556-4.2-1.063-1.19-2.372-1.79-3.928-1.79zm13.858 0c-1.063 0-1.958 0.38-2.684 1.13-0.7 0.65-1.051 1.44-1.051 2.37 0 0.8 0.325 1.54 0.973 2.22 0.674 0.77 1.555 1.37 2.644 1.79 0.83 0.25 1.477 0.63 1.944 1.12 0.492 0.52 0.74 1.04 0.74 1.56 0 0.57-0.195 1.04-0.584 1.4-0.441 0.39-0.947 0.58-1.518 0.58-0.726 0-1.412-0.36-2.06-1.09-0.648-0.67-1.063-1.59-1.244-2.76h-0.895l0.235 4.44h0.855l0.389-0.47c0.233 0.21 0.608 0.37 1.127 0.5 0.492 0.16 1.023 0.24 1.593 0.24 1.245 0 2.321-0.4 3.229-1.21 0.829-0.72 1.244-1.61 1.244-2.64 0-0.75-0.285-1.45-0.855-2.1-0.623-0.68-1.452-1.22-2.489-1.64-0.907-0.28-1.646-0.71-2.217-1.28-0.544-0.59-0.816-1.19-0.816-1.79 0-0.41 0.169-0.77 0.506-1.09 0.311-0.23 0.699-0.35 1.166-0.35 0.57 0 1.127 0.27 1.672 0.82 0.57 0.6 1.05 1.4 1.439 2.41h0.856l-0.235-3.89h-0.855c-0.052 0.13-0.103 0.21-0.154 0.24-0.052 0.02-0.118 0.03-0.196 0.03-0.233 0-0.558-0.09-0.972-0.27-0.545-0.18-1.139-0.27-1.787-0.27zm-99.196 0.27v0.66c0.389 0 0.714 0.11 0.973 0.32 0.311 0.28 0.57 0.66 0.777 1.12l4.551 10.11-0.973 2.53c-0.181 0.44-0.403 0.79-0.662 1.05-0.259 0.29-0.492 0.43-0.699 0.43-0.026 0-0.129-0.04-0.311-0.12l-0.351-0.15c-0.467-0.19-0.919-0.28-1.359-0.28-0.415 0-0.766 0.16-1.051 0.47-0.234 0.34-0.35 0.7-0.35 1.09 0 0.34 0.206 0.65 0.621 0.93 0.389 0.26 0.843 0.39 1.362 0.39 0.907 0 1.738-0.36 2.49-1.09 0.7-0.67 1.244-1.59 1.633-2.76l4.939-12.6c0.156-0.46 0.388-0.83 0.699-1.09 0.234-0.23 0.558-0.35 0.973-0.35v-0.66h-4.162v0.66h0.662c0.155 0 0.285 0.04 0.389 0.12 0.129 0.05 0.193 0.17 0.193 0.35 0 0.36-0.038 0.7-0.115 1.01l-2.645 7.08-3.189-7.12c-0.078-0.18-0.117-0.39-0.117-0.62s0.065-0.45 0.195-0.66c0.104-0.1 0.22-0.16 0.349-0.16h1.09v-0.66zm48.061 0v0.66h0.701c0.259 0 0.505 0.09 0.738 0.28 0.234 0.23 0.35 0.53 0.35 0.89v7.35c0 0.96 0.364 1.8 1.09 2.53 0.7 0.7 1.516 1.05 2.449 1.05 0.959 0 1.777-0.2 2.451-0.59 0.726-0.41 1.165-0.75 1.32-1.01v1.68l4.395-1.4v-0.59h-0.971c-0.181 0-0.35-0.09-0.506-0.27-0.207-0.26-0.31-0.56-0.31-0.89v-9.69h-4.629v0.66h0.701c0.337 0 0.633 0.12 0.893 0.35 0.285 0.32 0.427 0.68 0.427 1.09v7.08c-0.311 0.52-0.712 0.95-1.205 1.28-0.44 0.26-0.908 0.39-1.4 0.39-0.545 0-1.023-0.19-1.438-0.58-0.44-0.44-0.662-0.97-0.662-1.6v-8.67zm-67.489 0.66c1.089 0 2.037 0.56 2.84 1.68 0.856 1.16 1.284 2.6 1.284 4.31 0 1.45-0.338 2.7-1.012 3.74-0.571 1.01-1.336 1.51-2.295 1.51s-1.854-0.59-2.684-1.79c-0.829-1.24-1.244-2.73-1.244-4.47 0-1.4 0.325-2.59 0.973-3.58 0.596-0.93 1.309-1.4 2.138-1.4zm41.995 0c0.518 0 0.985 0.16 1.4 0.47 0.493 0.31 0.907 0.76 1.244 1.36v7.43c-0.363 0.44-0.764 0.79-1.205 1.05-0.363 0.21-0.804 0.31-1.322 0.31-0.83 0-1.608-0.58-2.334-1.75-0.726-1.22-1.088-2.68-1.088-4.39 0-1.27 0.349-2.35 1.049-3.23 0.648-0.83 1.4-1.25 2.256-1.25zm15.994 0c0.648 0 1.244 0.38 1.789 1.13 0.596 0.81 0.997 1.82 1.205 3.03h-5.91c0.311-1.34 0.712-2.35 1.205-3.03 0.518-0.75 1.089-1.13 1.711-1.13zm46.623 0c0.648 0 1.244 0.38 1.789 1.13 0.596 0.81 0.998 1.82 1.205 3.03h-5.912c0.311-1.34 0.714-2.35 1.207-3.03 0.518-0.75 1.089-1.13 1.711-1.13zm-396.08 0.71v4.55c-0.389 0.44-0.751 0.76-1.088 0.97-0.389 0.26-0.779 0.39-1.168 0.39-0.467 0-0.908-0.21-1.322-0.63-0.415-0.41-0.622-0.91-0.622-1.51 0-0.78 0.428-1.52 1.284-2.22 0.803-0.7 1.775-1.22 2.916-1.55zm543.5 0.86-4.395 1.36v0.58h0.973c0.181 0 0.363 0.1 0.545 0.31 0.181 0.29 0.271 0.58 0.271 0.9v7.58c0 0.44-0.129 0.8-0.389 1.09-0.207 0.26-0.44 0.39-0.699 0.39h-0.701v0.58h6.184v-0.58h-0.7c-0.259 0-0.506-0.13-0.74-0.39-0.233-0.29-0.349-0.65-0.349-1.09v-7.43c0.466-0.54 0.933-0.96 1.4-1.24 0.467-0.31 0.868-0.47 1.205-0.47 0.493 0 0.907 0.18 1.244 0.54 0.415 0.44 0.623 0.96 0.623 1.56v7.04c0 0.44-0.103 0.8-0.31 1.09-0.156 0.26-0.338 0.39-0.545 0.39h-0.699v0.58h5.949v-0.58h-0.739c-0.259 0-0.493-0.13-0.701-0.39-0.233-0.29-0.349-0.65-0.349-1.09v-7.04c0-0.98-0.312-1.83-0.934-2.53-0.648-0.75-1.438-1.13-2.371-1.13-0.752 0-1.491 0.2-2.217 0.59-0.726 0.36-1.245 0.74-1.556 1.13zm-38.651 0.03c-1.529 0-2.826 0.64-3.888 1.91-1.063 1.3-1.594 2.79-1.594 4.47 0 1.82 0.531 3.37 1.594 4.67 1.062 1.32 2.345 1.98 3.849 1.98 1.478 0 2.8-0.43 3.967-1.28 1.115-0.86 1.854-1.94 2.217-3.27l-0.66-0.46c-0.571 0.98-1.233 1.71-1.985 2.17-0.7 0.47-1.439 0.7-2.217 0.7-1.192 0-2.216-0.46-3.072-1.4-0.881-0.98-1.32-2.15-1.32-3.5h8.594c0-1.68-0.52-3.08-1.557-4.2-1.063-1.19-2.372-1.79-3.928-1.79zm24.795 0c-1.53 0-2.826 0.64-3.889 1.91-1.063 1.3-1.593 2.79-1.593 4.47 0 1.82 0.53 3.37 1.593 4.67 1.063 1.32 2.346 1.98 3.85 1.98 1.478 0 2.8-0.43 3.967-1.28 1.115-0.86 1.854-1.94 2.217-3.27l-0.661-0.46c-0.57 0.98-1.232 1.71-1.984 2.17-0.7 0.47-1.439 0.7-2.217 0.7-1.192 0-2.216-0.46-3.072-1.4-0.881-0.98-1.322-2.15-1.322-3.5h8.595c0-1.68-0.519-3.08-1.556-4.2-1.063-1.19-2.372-1.79-3.928-1.79zm-383.06 0.77v4.55c-0.389 0.44-0.751 0.77-1.088 0.97-0.389 0.26-0.779 0.39-1.168 0.39-0.467 0-0.908-0.2-1.322-0.62-0.415-0.41-0.622-0.92-0.622-1.52 0-0.77 0.428-1.51 1.284-2.21 0.803-0.7 1.775-1.22 2.916-1.56zm358.12 0.17c0.648 0 1.245 0.37 1.789 1.12 0.596 0.81 0.998 1.82 1.205 3.04h-5.912c0.311-1.35 0.714-2.36 1.207-3.04 0.518-0.75 1.089-1.12 1.711-1.12zm24.793 0c0.648 0 1.244 0.37 1.789 1.12 0.596 0.81 1 1.82 1.207 3.04h-5.912c0.311-1.35 0.712-2.36 1.205-3.04 0.518-0.75 1.089-1.12 1.711-1.12z"/>
</svg>
